<svg xmlns="http://www.w3.org/2000/svg" xmlns:xlink="http://www.w3.org/1999/xlink" width="500" zoomAndPan="magnify" viewBox="0 0 375 52.499999" height="70" preserveAspectRatio="xMidYMid meet" version="1.0"><defs><g/><clipPath id="2d8040d9f7"><path d="M 318.824219 13.671875 L 329.449219 13.671875 L 329.449219 22.09375 L 318.824219 22.09375 Z M 318.824219 13.671875 " clip-rule="nonzero"/></clipPath><clipPath id="87d4314a8d"><path d="M 313.6875 18.199219 L 324 18.199219 L 324 26 L 313.6875 26 Z M 313.6875 18.199219 " clip-rule="nonzero"/></clipPath></defs><path fill="#0cc0df" d="M 343.5 9.902344 C 342.414062 10.621094 342.15625 12.34375 340.667969 12.160156 C 339.285156 11.992188 338.695312 10.683594 338.21875 9.546875 C 337.789062 8.519531 337.292969 7.011719 337.8125 5.925781 C 338.117188 5.285156 338.785156 5.023438 339.464844 5.148438 C 340.242188 5.292969 340.558594 5.234375 341.347656 4.976562 C 343.117188 4.394531 347.589844 2.105469 348.640625 4.851562 C 349.820312 7.929688 345.300781 8.710938 343.5 9.902344 " fill-opacity="1" fill-rule="nonzero"/><path fill="#aad0ff" d="M 340.449219 9.699219 C 340.4375 9.714844 340.421875 9.726562 340.40625 9.734375 C 338.195312 10.976562 332.6875 13.640625 330.746094 14.523438 C 329.050781 15.292969 327.316406 16.03125 325.691406 16.9375 C 325.078125 17.277344 324.253906 17.914062 323.511719 17.886719 C 323.019531 17.867188 322.699219 17.507812 322.171875 17.539062 C 321.460938 17.585938 319.152344 18.265625 320.429688 16.699219 C 320.695312 16.375 321.078125 16.136719 321.296875 15.769531 C 321.492188 15.441406 321.503906 15.03125 321.726562 14.71875 C 322.089844 14.199219 322.800781 14.003906 323.371094 13.824219 C 325.058594 13.285156 326.640625 12.503906 328.261719 11.792969 C 329.984375 11.035156 331.773438 10.433594 333.507812 9.703125 C 335.152344 9.011719 337.660156 7.886719 339.265625 7.125 C 339.28125 7.117188 339.296875 7.109375 339.3125 7.105469 C 339.738281 7.550781 340.054688 8.363281 340.164062 8.671875 C 340.257812 8.929688 340.386719 9.324219 340.449219 9.699219 " fill-opacity="1" fill-rule="nonzero"/><g clip-path="url(#2d8040d9f7)"><path fill="#ffffff" d="M 320.023438 19.515625 C 320.007812 19.300781 320.136719 18.371094 320.054688 18.253906 C 319.722656 17.792969 319 19.453125 318.933594 19.730469 C 318.789062 20.347656 318.734375 21.203125 319.128906 21.746094 C 319.339844 22.039062 319.667969 22.234375 319.976562 21.96875 C 320.269531 21.710938 320.171875 21.183594 320.128906 20.851562 C 320.074219 20.40625 320.050781 19.960938 320.023438 19.515625 Z M 329.078125 14.839844 C 328.714844 15.050781 328.203125 15.160156 327.804688 15.3125 C 326.964844 15.644531 326.132812 16.003906 325.3125 16.386719 C 324.625 16.710938 323.917969 17.246094 323.136719 17.0625 C 322.730469 16.964844 322.515625 16.890625 322.09375 16.957031 C 321.875 16.988281 321.214844 17.191406 321.097656 16.867188 C 320.988281 16.574219 321.566406 16.152344 321.773438 15.953125 C 321.859375 15.867188 322.078125 15.730469 322.125 15.621094 C 322.1875 15.480469 322.085938 15.210938 322.164062 15.027344 C 322.453125 14.328125 323.472656 14.113281 324.105469 13.875 C 324.988281 13.539062 325.5625 13.855469 326.421875 14.085938 C 327.3125 14.324219 327.992188 14.257812 328.910156 14.355469 C 329.914062 14.464844 329.179688 14.78125 329.078125 14.839844 " fill-opacity="1" fill-rule="nonzero"/></g><path fill="#ffffff" d="M 319.941406 21.480469 C 319.933594 21.441406 319.894531 21.414062 319.863281 21.402344 C 319.777344 21.375 319.722656 21.417969 319.640625 21.410156 C 319.472656 21.390625 319.386719 21.148438 319.347656 21.019531 C 319.261719 20.742188 319.25 20.429688 319.230469 20.140625 C 319.226562 20.0625 319.101562 20.03125 319.082031 20.121094 C 319.003906 20.542969 318.945312 20.964844 319.128906 21.371094 C 319.257812 21.664062 319.550781 21.878906 319.867188 21.707031 C 319.9375 21.664062 319.957031 21.585938 319.945312 21.511719 C 319.945312 21.5 319.941406 21.492188 319.941406 21.480469 Z M 339.152344 7.632812 C 338.894531 7.632812 338.71875 7.699219 338.484375 7.800781 C 338.257812 7.902344 337.992188 7.988281 337.816406 8.164062 C 337.761719 8.214844 337.800781 8.316406 337.878906 8.3125 C 338.109375 8.304688 338.332031 8.1875 338.542969 8.097656 C 338.796875 7.988281 338.992188 7.90625 339.179688 7.699219 C 339.199219 7.675781 339.183594 7.632812 339.152344 7.632812 Z M 337.25 8.527344 C 336.796875 8.523438 336.339844 8.816406 335.933594 8.988281 C 335.496094 9.171875 335.054688 9.359375 334.617188 9.550781 C 333.699219 9.949219 332.785156 10.359375 331.859375 10.742188 C 330.957031 11.121094 330.058594 11.503906 329.164062 11.898438 C 328.691406 12.105469 328.214844 12.308594 327.742188 12.519531 C 327.316406 12.707031 326.847656 12.867188 326.480469 13.160156 C 326.441406 13.191406 326.472656 13.265625 326.523438 13.261719 C 326.988281 13.199219 327.425781 12.972656 327.859375 12.796875 C 328.339844 12.601562 328.8125 12.402344 329.289062 12.203125 C 330.191406 11.824219 331.089844 11.4375 331.980469 11.035156 C 332.867188 10.636719 333.757812 10.261719 334.648438 9.875 C 335.117188 9.671875 335.582031 9.46875 336.046875 9.257812 C 336.449219 9.078125 336.980469 8.941406 337.285156 8.613281 C 337.3125 8.582031 337.292969 8.527344 337.25 8.527344 Z M 324.863281 13.871094 C 324.582031 13.839844 324.324219 13.996094 324.066406 14.097656 C 323.789062 14.210938 323.507812 14.324219 323.234375 14.445312 C 322.90625 14.59375 322.582031 14.816406 322.65625 15.21875 C 322.664062 15.253906 322.699219 15.289062 322.734375 15.296875 C 322.753906 15.300781 322.785156 15.316406 322.800781 15.300781 C 322.957031 15.175781 322.886719 14.976562 323.070312 14.835938 C 323.25 14.699219 323.496094 14.632812 323.699219 14.554688 C 324.074219 14.40625 324.644531 14.289062 324.90625 13.96875 C 324.9375 13.929688 324.914062 13.878906 324.863281 13.871094 Z M 322.503906 15.867188 C 322.386719 15.824219 322.304688 15.90625 322.214844 15.976562 C 322.078125 16.070312 321.945312 16.167969 321.8125 16.269531 C 321.667969 16.378906 321.453125 16.542969 321.5 16.75 C 321.515625 16.824219 321.609375 16.820312 321.644531 16.769531 C 321.710938 16.679688 321.75 16.589844 321.839844 16.515625 C 321.929688 16.4375 322.035156 16.375 322.136719 16.304688 C 322.261719 16.214844 322.546875 16.097656 322.539062 15.914062 C 322.539062 15.890625 322.523438 15.875 322.503906 15.867188 Z M 339.996094 5.574219 C 339.621094 5.460938 339.039062 5.53125 338.671875 5.660156 C 338.382812 5.765625 338.078125 5.96875 337.992188 6.277344 C 337.976562 6.332031 338.046875 6.378906 338.085938 6.335938 C 338.320312 6.0625 338.574219 5.894531 338.933594 5.828125 C 339.285156 5.761719 339.683594 5.851562 340.011719 5.710938 C 340.074219 5.683594 340.050781 5.589844 339.996094 5.574219 Z M 347.84375 4.742188 C 347.660156 4.710938 347.507812 4.59375 347.335938 4.53125 C 347.144531 4.457031 346.941406 4.40625 346.734375 4.382812 C 346.308594 4.335938 345.875 4.390625 345.453125 4.460938 C 345.039062 4.53125 344.628906 4.617188 344.21875 4.695312 C 343.835938 4.769531 343.410156 4.925781 343.019531 4.898438 C 342.996094 4.898438 342.988281 4.871094 343.007812 4.855469 C 343.375 4.597656 343.929688 4.503906 344.359375 4.390625 C 344.816406 4.269531 345.28125 4.167969 345.746094 4.105469 C 346.152344 4.050781 346.5625 4.035156 346.964844 4.105469 C 347.289062 4.164062 347.78125 4.289062 347.945312 4.609375 C 347.984375 4.683594 347.921875 4.757812 347.84375 4.742188 " fill-opacity="1" fill-rule="nonzero"/><path fill="#2e2e30" d="M 334.882812 10.761719 C 334.820312 10.714844 334.742188 10.726562 334.714844 10.804688 C 334.644531 11.015625 334.773438 11.285156 334.839844 11.488281 C 334.90625 11.6875 334.949219 11.953125 335.140625 12.066406 C 335.207031 12.105469 335.285156 12.066406 335.308594 12 C 335.375 11.792969 335.230469 11.554688 335.160156 11.355469 C 335.09375 11.167969 335.046875 10.886719 334.882812 10.761719 Z M 331.949219 12.019531 C 331.859375 11.894531 331.683594 11.976562 331.707031 12.121094 C 331.746094 12.367188 331.867188 12.609375 331.957031 12.839844 C 332.03125 13.035156 332.082031 13.207031 332.253906 13.335938 C 332.296875 13.371094 332.378906 13.335938 332.386719 13.28125 C 332.425781 13.058594 332.324219 12.875 332.242188 12.671875 C 332.152344 12.453125 332.078125 12.214844 331.949219 12.019531 Z M 328.949219 13.195312 C 328.917969 13.183594 328.867188 13.203125 328.851562 13.238281 C 328.753906 13.445312 328.894531 13.703125 328.960938 13.910156 C 329.027344 14.125 329.039062 14.453125 329.253906 14.566406 C 329.320312 14.597656 329.398438 14.582031 329.4375 14.519531 C 329.570312 14.296875 329.390625 13.988281 329.308594 13.769531 C 329.234375 13.5625 329.167969 13.28125 328.949219 13.195312 Z M 326.035156 14.511719 C 325.980469 14.429688 325.820312 14.453125 325.832031 14.566406 C 325.859375 14.800781 325.933594 15.027344 326.007812 15.25 C 326.074219 15.449219 326.109375 15.703125 326.277344 15.839844 C 326.335938 15.890625 326.4375 15.878906 326.457031 15.792969 C 326.507812 15.574219 326.386719 15.367188 326.316406 15.164062 C 326.234375 14.945312 326.15625 14.710938 326.035156 14.511719 Z M 342.316406 9.128906 C 342.207031 8.605469 342.054688 8.09375 341.871094 7.59375 C 341.714844 7.15625 341.527344 6.734375 341.273438 6.34375 C 341.066406 6.023438 340.808594 5.621094 340.460938 5.4375 C 340.421875 5.417969 340.378906 5.460938 340.398438 5.5 C 340.589844 5.882812 340.914062 6.191406 341.121094 6.570312 C 341.347656 6.976562 341.519531 7.417969 341.667969 7.859375 C 341.816406 8.296875 341.941406 8.75 342.042969 9.203125 C 342.136719 9.621094 342.132812 10.136719 342.324219 10.515625 C 342.355469 10.578125 342.453125 10.5625 342.46875 10.5 C 342.574219 10.082031 342.40625 9.539062 342.316406 9.128906 Z M 340.632812 9.914062 C 340.707031 10.253906 340.886719 10.816406 340.703125 11.136719 C 340.679688 11.183594 340.617188 11.175781 340.589844 11.136719 C 340.480469 10.988281 340.484375 10.832031 340.464844 10.652344 C 340.449219 10.515625 340.429688 10.378906 340.40625 10.242188 C 340.375 10.71875 340.179688 10.988281 339.609375 10.496094 C 339.539062 10.429688 339.46875 10.359375 339.40625 10.277344 C 339.742188 10.097656 340.046875 9.933594 340.308594 9.789062 C 340.203125 9.359375 340.054688 8.945312 339.882812 8.542969 C 339.714844 8.15625 339.550781 7.765625 339.351562 7.390625 C 339.308594 7.308594 339.257812 7.230469 339.207031 7.152344 C 338.941406 7.28125 338.648438 7.414062 338.34375 7.558594 C 338.296875 7.179688 338.367188 6.847656 338.757812 6.804688 C 338.828125 6.796875 338.902344 6.804688 338.96875 6.824219 C 338.871094 6.699219 338.773438 6.574219 338.683594 6.441406 C 338.636719 6.375 338.726562 6.304688 338.789062 6.335938 C 339.128906 6.503906 339.371094 6.886719 339.554688 7.210938 C 339.789062 7.628906 339.988281 8.078125 340.175781 8.519531 C 340.367188 8.972656 340.527344 9.433594 340.632812 9.914062 " fill-opacity="1" fill-rule="nonzero"/><g fill="#ffffff" fill-opacity="1"><g transform="translate(48.261737, 37.153914)"><g><path d="M 19.171875 -12.984375 C 20.640625 -12.941406 21.757812 -12.507812 22.53125 -11.6875 C 23.300781 -10.863281 23.6875 -9.617188 23.6875 -7.953125 L 23.6875 -5.53125 C 23.6875 -3.59375 23.25 -2.1875 22.375 -1.3125 C 21.507812 -0.4375 20.113281 0 18.1875 0 L 3.453125 0 C 3.015625 0 2.796875 -0.21875 2.796875 -0.65625 L 2.796875 -22.359375 C 2.796875 -22.796875 3.015625 -23.015625 3.453125 -23.015625 L 15.890625 -23.015625 C 17.578125 -23.015625 18.832031 -22.628906 19.65625 -21.859375 C 20.476562 -21.097656 20.890625 -19.953125 20.890625 -18.421875 L 20.890625 -16.9375 C 20.890625 -14.945312 20.316406 -13.71875 19.171875 -13.25 Z M 7.890625 -19.078125 L 7.890625 -13.8125 L 13.90625 -13.8125 C 14.632812 -13.8125 15.144531 -13.957031 15.4375 -14.25 C 15.738281 -14.550781 15.890625 -15.0625 15.890625 -15.78125 L 15.890625 -17.203125 C 15.890625 -17.878906 15.742188 -18.359375 15.453125 -18.640625 C 15.171875 -18.929688 14.691406 -19.078125 14.015625 -19.078125 Z M 18.578125 -7.890625 C 18.578125 -8.617188 18.425781 -9.128906 18.125 -9.421875 C 17.832031 -9.710938 17.328125 -9.859375 16.609375 -9.859375 L 7.890625 -9.859375 L 7.890625 -3.953125 L 16.609375 -3.953125 C 17.328125 -3.953125 17.832031 -4.097656 18.125 -4.390625 C 18.425781 -4.679688 18.578125 -5.191406 18.578125 -5.921875 Z M 18.578125 -7.890625 "/></g></g></g><g fill="#ffffff" fill-opacity="1"><g transform="translate(73.685609, 37.153914)"><g><path d="M 13.25 -17.265625 C 15.050781 -17.265625 16.363281 -16.851562 17.1875 -16.03125 C 18.007812 -15.207031 18.421875 -13.898438 18.421875 -12.109375 L 18.421875 -0.65625 C 18.421875 -0.21875 18.203125 0 17.765625 0 L 14.234375 0 C 13.796875 0 13.578125 -0.21875 13.578125 -0.65625 L 13.578125 -2.078125 L 13.328125 -2.078125 C 13.171875 -1.546875 12.75 -1.035156 12.0625 -0.546875 C 11.382812 -0.0664062 10.410156 0.171875 9.140625 0.171875 L 6.25 0.171875 C 4.800781 0.171875 3.722656 -0.175781 3.015625 -0.875 C 2.316406 -1.582031 1.96875 -2.660156 1.96875 -4.109375 L 1.96875 -5.59375 C 1.96875 -7.0625 2.316406 -8.140625 3.015625 -8.828125 C 3.722656 -9.515625 4.800781 -9.859375 6.25 -9.859375 L 13.578125 -9.859375 L 13.578125 -12.140625 C 13.578125 -12.859375 13.441406 -13.351562 13.171875 -13.625 C 12.898438 -13.90625 12.398438 -14.046875 11.671875 -14.046875 L 8.8125 -14.046875 C 8.238281 -14.046875 7.832031 -13.929688 7.59375 -13.703125 C 7.351562 -13.472656 7.234375 -13.082031 7.234375 -12.53125 L 7.234375 -12 C 7.234375 -11.5625 7.015625 -11.34375 6.578125 -11.34375 L 2.953125 -11.34375 C 2.515625 -11.34375 2.296875 -11.5625 2.296875 -12 L 2.296875 -12.65625 C 2.296875 -14.28125 2.6875 -15.453125 3.46875 -16.171875 C 4.25 -16.898438 5.535156 -17.265625 7.328125 -17.265625 Z M 11.671875 -3.21875 C 12.398438 -3.21875 12.898438 -3.351562 13.171875 -3.625 C 13.441406 -3.90625 13.578125 -4.40625 13.578125 -5.125 L 13.578125 -6.640625 L 8.21875 -6.640625 C 7.695312 -6.640625 7.335938 -6.535156 7.140625 -6.328125 C 6.941406 -6.117188 6.84375 -5.753906 6.84375 -5.234375 L 6.84375 -4.796875 C 6.84375 -4.203125 6.953125 -3.789062 7.171875 -3.5625 C 7.390625 -3.332031 7.796875 -3.21875 8.390625 -3.21875 Z M 11.671875 -3.21875 "/></g></g></g><g fill="#ffffff" fill-opacity="1"><g transform="translate(94.307563, 37.153914)"><g><path d="M 3.0625 0 C 2.625 0 2.40625 -0.21875 2.40625 -0.65625 L 2.40625 -16.4375 C 2.40625 -16.882812 2.625 -17.109375 3.0625 -17.109375 L 6.578125 -17.109375 C 7.015625 -17.109375 7.234375 -16.882812 7.234375 -16.4375 L 7.234375 -15.0625 L 7.5 -15.0625 C 7.738281 -15.738281 8.226562 -16.273438 8.96875 -16.671875 C 9.71875 -17.066406 10.617188 -17.265625 11.671875 -17.265625 L 14.3125 -17.265625 C 14.75 -17.265625 14.96875 -17.046875 14.96875 -16.609375 L 14.96875 -13.328125 C 14.96875 -12.878906 14.75 -12.65625 14.3125 -12.65625 L 9.140625 -12.65625 C 8.421875 -12.65625 7.921875 -12.523438 7.640625 -12.265625 C 7.367188 -12.003906 7.234375 -11.507812 7.234375 -10.78125 L 7.234375 -0.65625 C 7.234375 -0.21875 7.015625 0 6.578125 0 Z M 3.0625 0 "/></g></g></g><g fill="#ffffff" fill-opacity="1"><g transform="translate(109.930261, 37.153914)"><g><path d="M 8.65625 -12.984375 L 8.65625 -5.859375 C 8.65625 -5.128906 8.785156 -4.628906 9.046875 -4.359375 C 9.304688 -4.085938 9.800781 -3.953125 10.53125 -3.953125 L 13.90625 -3.953125 C 14.351562 -3.953125 14.578125 -3.726562 14.578125 -3.28125 L 14.578125 -0.65625 C 14.578125 -0.21875 14.351562 0 13.90625 0 L 8.984375 0 C 7.179688 0 5.863281 -0.414062 5.03125 -1.25 C 4.195312 -2.082031 3.78125 -3.398438 3.78125 -5.203125 L 3.78125 -12.984375 L 0.65625 -12.984375 C 0.21875 -12.984375 0 -13.207031 0 -13.65625 L 0 -16.4375 C 0 -16.882812 0.21875 -17.109375 0.65625 -17.109375 L 3.78125 -17.109375 L 3.78125 -19.828125 C 3.78125 -20.265625 4 -20.484375 4.4375 -20.484375 L 8 -20.484375 C 8.4375 -20.484375 8.65625 -20.265625 8.65625 -19.828125 L 8.65625 -17.109375 L 13.90625 -17.109375 C 14.351562 -17.109375 14.578125 -16.882812 14.578125 -16.4375 L 14.578125 -13.65625 C 14.578125 -13.207031 14.351562 -12.984375 13.90625 -12.984375 Z M 8.65625 -12.984375 "/></g></g></g><g fill="#ffffff" fill-opacity="1"><g transform="translate(125.388502, 37.153914)"><g><path d="M 2.140625 6.25 C 1.703125 6.25 1.484375 6.03125 1.484375 5.59375 L 1.484375 2.734375 C 1.484375 2.296875 1.703125 2.078125 2.140625 2.078125 L 4.40625 2.078125 C 4.863281 2.078125 5.210938 1.972656 5.453125 1.765625 C 5.703125 1.554688 5.910156 1.195312 6.078125 0.6875 L 6.40625 -0.265625 L 0.0625 -16.28125 C 0.0195312 -16.363281 0 -16.472656 0 -16.609375 C 0 -16.941406 0.21875 -17.109375 0.65625 -17.109375 L 4.078125 -17.109375 C 4.316406 -17.109375 4.492188 -17.0625 4.609375 -16.96875 C 4.734375 -16.882812 4.84375 -16.734375 4.9375 -16.515625 L 7.234375 -9.96875 L 8.6875 -5.828125 L 8.953125 -5.828125 L 10.421875 -9.96875 L 12.734375 -16.515625 C 12.816406 -16.734375 12.914062 -16.882812 13.03125 -16.96875 C 13.15625 -17.0625 13.335938 -17.109375 13.578125 -17.109375 L 17.0625 -17.109375 C 17.476562 -17.109375 17.6875 -16.953125 17.6875 -16.640625 C 17.6875 -16.503906 17.65625 -16.375 17.59375 -16.25 L 10.828125 1.484375 C 10.335938 2.734375 9.867188 3.691406 9.421875 4.359375 C 8.972656 5.023438 8.441406 5.503906 7.828125 5.796875 C 7.210938 6.097656 6.410156 6.25 5.421875 6.25 Z M 2.140625 6.25 "/></g></g></g><g fill="#ffffff" fill-opacity="1"><g transform="translate(142.557021, 37.153914)"><g><path d="M 6.90625 0.171875 C 5.101562 0.171875 3.816406 -0.1875 3.046875 -0.90625 C 2.285156 -1.632812 1.90625 -2.8125 1.90625 -4.4375 L 1.90625 -5.09375 C 1.90625 -5.53125 2.125 -5.75 2.5625 -5.75 L 6.15625 -5.75 C 6.394531 -5.75 6.566406 -5.695312 6.671875 -5.59375 C 6.785156 -5.5 6.84375 -5.332031 6.84375 -5.09375 L 6.84375 -4.640625 C 6.84375 -4.085938 6.972656 -3.6875 7.234375 -3.4375 C 7.492188 -3.1875 7.910156 -3.0625 8.484375 -3.0625 L 11.9375 -3.0625 C 12.507812 -3.0625 12.910156 -3.164062 13.140625 -3.375 C 13.367188 -3.582031 13.484375 -3.9375 13.484375 -4.4375 L 13.484375 -5.625 C 13.484375 -6.082031 13.367188 -6.414062 13.140625 -6.625 C 12.910156 -6.832031 12.507812 -6.9375 11.9375 -6.9375 L 6.75 -6.9375 C 5.144531 -6.9375 3.972656 -7.28125 3.234375 -7.96875 C 2.503906 -8.664062 2.140625 -9.75 2.140625 -11.21875 L 2.140625 -12.984375 C 2.140625 -14.460938 2.503906 -15.546875 3.234375 -16.234375 C 3.972656 -16.921875 5.144531 -17.265625 6.75 -17.265625 L 12.5 -17.265625 C 14.300781 -17.265625 15.585938 -16.898438 16.359375 -16.171875 C 17.140625 -15.453125 17.53125 -14.28125 17.53125 -12.65625 L 17.53125 -12.171875 C 17.53125 -11.734375 17.3125 -11.515625 16.875 -11.515625 L 13.25 -11.515625 C 12.8125 -11.515625 12.59375 -11.734375 12.59375 -12.171875 L 12.59375 -12.46875 C 12.59375 -13.007812 12.460938 -13.40625 12.203125 -13.65625 C 11.941406 -13.914062 11.523438 -14.046875 10.953125 -14.046875 L 8.546875 -14.046875 C 7.984375 -14.046875 7.582031 -13.9375 7.34375 -13.71875 C 7.113281 -13.5 7 -13.132812 7 -12.625 L 7 -11.578125 C 7 -11.078125 7.113281 -10.710938 7.34375 -10.484375 C 7.582031 -10.265625 7.984375 -10.15625 8.546875 -10.15625 L 13.8125 -10.15625 C 15.394531 -10.15625 16.546875 -9.820312 17.265625 -9.15625 C 17.992188 -8.488281 18.359375 -7.429688 18.359375 -5.984375 L 18.359375 -4.109375 C 18.359375 -2.640625 17.988281 -1.554688 17.25 -0.859375 C 16.519531 -0.171875 15.351562 0.171875 13.75 0.171875 Z M 6.90625 0.171875 "/></g></g></g><g fill="#ffffff" fill-opacity="1"><g transform="translate(162.389623, 37.153914)"><g><path d="M 3.0625 6.25 C 2.625 6.25 2.40625 6.03125 2.40625 5.59375 L 2.40625 -16.4375 C 2.40625 -16.882812 2.625 -17.109375 3.0625 -17.109375 L 6.578125 -17.109375 C 7.015625 -17.109375 7.234375 -16.882812 7.234375 -16.4375 L 7.234375 -15.0625 L 7.5 -15.0625 C 7.738281 -15.738281 8.222656 -16.273438 8.953125 -16.671875 C 9.691406 -17.066406 10.597656 -17.265625 11.671875 -17.265625 L 13.65625 -17.265625 C 15.445312 -17.265625 16.757812 -16.851562 17.59375 -16.03125 C 18.425781 -15.207031 18.84375 -13.898438 18.84375 -12.109375 L 18.84375 -5.203125 C 18.84375 -3.398438 18.425781 -2.082031 17.59375 -1.25 C 16.757812 -0.414062 15.445312 0 13.65625 0 L 7.234375 0 L 7.234375 5.59375 C 7.234375 6.03125 7.015625 6.25 6.578125 6.25 Z M 12.109375 -3.78125 C 12.828125 -3.78125 13.316406 -3.914062 13.578125 -4.1875 C 13.847656 -4.46875 13.984375 -4.96875 13.984375 -5.6875 L 13.984375 -11.609375 C 13.984375 -12.335938 13.847656 -12.832031 13.578125 -13.09375 C 13.316406 -13.351562 12.828125 -13.484375 12.109375 -13.484375 L 9.140625 -13.484375 C 8.421875 -13.484375 7.921875 -13.351562 7.640625 -13.09375 C 7.367188 -12.832031 7.234375 -12.335938 7.234375 -11.609375 L 7.234375 -3.78125 Z M 12.109375 -3.78125 "/></g></g></g><g fill="#ffffff" fill-opacity="1"><g transform="translate(183.373371, 37.153914)"><g><path d="M 13.25 -17.265625 C 15.050781 -17.265625 16.363281 -16.851562 17.1875 -16.03125 C 18.007812 -15.207031 18.421875 -13.898438 18.421875 -12.109375 L 18.421875 -0.65625 C 18.421875 -0.21875 18.203125 0 17.765625 0 L 14.234375 0 C 13.796875 0 13.578125 -0.21875 13.578125 -0.65625 L 13.578125 -2.078125 L 13.328125 -2.078125 C 13.171875 -1.546875 12.75 -1.035156 12.0625 -0.546875 C 11.382812 -0.0664062 10.410156 0.171875 9.140625 0.171875 L 6.25 0.171875 C 4.800781 0.171875 3.722656 -0.175781 3.015625 -0.875 C 2.316406 -1.582031 1.96875 -2.660156 1.96875 -4.109375 L 1.96875 -5.59375 C 1.96875 -7.0625 2.316406 -8.140625 3.015625 -8.828125 C 3.722656 -9.515625 4.800781 -9.859375 6.25 -9.859375 L 13.578125 -9.859375 L 13.578125 -12.140625 C 13.578125 -12.859375 13.441406 -13.351562 13.171875 -13.625 C 12.898438 -13.90625 12.398438 -14.046875 11.671875 -14.046875 L 8.8125 -14.046875 C 8.238281 -14.046875 7.832031 -13.929688 7.59375 -13.703125 C 7.351562 -13.472656 7.234375 -13.082031 7.234375 -12.53125 L 7.234375 -12 C 7.234375 -11.5625 7.015625 -11.34375 6.578125 -11.34375 L 2.953125 -11.34375 C 2.515625 -11.34375 2.296875 -11.5625 2.296875 -12 L 2.296875 -12.65625 C 2.296875 -14.28125 2.6875 -15.453125 3.46875 -16.171875 C 4.25 -16.898438 5.535156 -17.265625 7.328125 -17.265625 Z M 11.671875 -3.21875 C 12.398438 -3.21875 12.898438 -3.351562 13.171875 -3.625 C 13.441406 -3.90625 13.578125 -4.40625 13.578125 -5.125 L 13.578125 -6.640625 L 8.21875 -6.640625 C 7.695312 -6.640625 7.335938 -6.535156 7.140625 -6.328125 C 6.941406 -6.117188 6.84375 -5.753906 6.84375 -5.234375 L 6.84375 -4.796875 C 6.84375 -4.203125 6.953125 -3.789062 7.171875 -3.5625 C 7.390625 -3.332031 7.796875 -3.21875 8.390625 -3.21875 Z M 11.671875 -3.21875 "/></g></g></g><g fill="#ffffff" fill-opacity="1"><g transform="translate(203.995324, 37.153914)"><g><path d="M 7.328125 0.171875 C 5.535156 0.171875 4.222656 -0.242188 3.390625 -1.078125 C 2.554688 -1.910156 2.140625 -3.226562 2.140625 -5.03125 L 2.140625 -12.109375 C 2.140625 -13.898438 2.554688 -15.207031 3.390625 -16.03125 C 4.222656 -16.851562 5.535156 -17.265625 7.328125 -17.265625 L 13.328125 -17.265625 C 15.117188 -17.265625 16.429688 -16.851562 17.265625 -16.03125 C 18.097656 -15.207031 18.515625 -13.898438 18.515625 -12.109375 L 18.515625 -11.109375 C 18.515625 -10.671875 18.296875 -10.453125 17.859375 -10.453125 L 14.234375 -10.453125 C 13.796875 -10.453125 13.578125 -10.671875 13.578125 -11.109375 L 13.578125 -11.515625 C 13.578125 -12.234375 13.441406 -12.726562 13.171875 -13 C 12.898438 -13.28125 12.398438 -13.421875 11.671875 -13.421875 L 8.875 -13.421875 C 8.15625 -13.421875 7.660156 -13.28125 7.390625 -13 C 7.128906 -12.726562 7 -12.234375 7 -11.515625 L 7 -5.59375 C 7 -4.863281 7.128906 -4.367188 7.390625 -4.109375 C 7.660156 -3.847656 8.15625 -3.71875 8.875 -3.71875 L 11.671875 -3.71875 C 12.398438 -3.71875 12.898438 -3.847656 13.171875 -4.109375 C 13.441406 -4.367188 13.578125 -4.863281 13.578125 -5.59375 L 13.578125 -6.015625 C 13.578125 -6.453125 13.796875 -6.671875 14.234375 -6.671875 L 17.859375 -6.671875 C 18.296875 -6.671875 18.515625 -6.453125 18.515625 -6.015625 L 18.515625 -5.03125 C 18.515625 -3.226562 18.097656 -1.910156 17.265625 -1.078125 C 16.429688 -0.242188 15.117188 0.171875 13.328125 0.171875 Z M 7.328125 0.171875 "/></g></g></g><g fill="#ffffff" fill-opacity="1"><g transform="translate(224.485716, 37.153914)"><g><path d="M 7 -7.328125 L 7 -4.9375 C 7 -4.207031 7.128906 -3.710938 7.390625 -3.453125 C 7.660156 -3.191406 8.15625 -3.0625 8.875 -3.0625 L 12.078125 -3.0625 C 12.597656 -3.0625 12.976562 -3.175781 13.21875 -3.40625 C 13.457031 -3.632812 13.578125 -3.988281 13.578125 -4.46875 L 13.578125 -5.09375 C 13.578125 -5.53125 13.796875 -5.75 14.234375 -5.75 L 17.859375 -5.75 C 18.296875 -5.75 18.515625 -5.53125 18.515625 -5.09375 L 18.515625 -4.4375 C 18.515625 -2.84375 18.125 -1.675781 17.34375 -0.9375 C 16.570312 -0.195312 15.285156 0.171875 13.484375 0.171875 L 7.328125 0.171875 C 5.535156 0.171875 4.222656 -0.242188 3.390625 -1.078125 C 2.554688 -1.910156 2.140625 -3.226562 2.140625 -5.03125 L 2.140625 -12.109375 C 2.140625 -13.898438 2.554688 -15.207031 3.390625 -16.03125 C 4.222656 -16.851562 5.535156 -17.265625 7.328125 -17.265625 L 13.421875 -17.265625 C 15.210938 -17.265625 16.519531 -16.851562 17.34375 -16.03125 C 18.164062 -15.207031 18.578125 -13.898438 18.578125 -12.109375 L 18.578125 -8 C 18.578125 -7.550781 18.359375 -7.328125 17.921875 -7.328125 Z M 8.875 -14.046875 C 8.15625 -14.046875 7.660156 -13.90625 7.390625 -13.625 C 7.128906 -13.351562 7 -12.859375 7 -12.140625 L 7 -10.5625 L 13.75 -10.5625 L 13.75 -12.140625 C 13.75 -12.859375 13.609375 -13.351562 13.328125 -13.625 C 13.054688 -13.90625 12.5625 -14.046875 11.84375 -14.046875 Z M 8.875 -14.046875 "/></g></g></g><g fill="#000000" fill-opacity="1"><g transform="translate(245.216516, 37.153914)"><g/></g></g><g fill="#ffffff" fill-opacity="1"><g transform="translate(251.969938, 37.153914)"><g><path d="M 3.875 0 C 3.59375 0 3.453125 -0.140625 3.453125 -0.421875 L 3.453125 -22.59375 C 3.453125 -22.875 3.59375 -23.015625 3.875 -23.015625 L 5.5625 -23.015625 C 5.863281 -23.015625 6.015625 -22.875 6.015625 -22.59375 L 6.015625 -2.4375 L 17.890625 -2.4375 C 18.203125 -2.4375 18.359375 -2.289062 18.359375 -2 L 18.359375 -0.421875 C 18.359375 -0.140625 18.203125 0 17.890625 0 Z M 3.875 0 "/></g></g></g><g fill="#ffffff" fill-opacity="1"><g transform="translate(271.14474, 37.153914)"><g><path d="M 11.3125 -16.78125 C 12.976562 -16.78125 14.210938 -16.378906 15.015625 -15.578125 C 15.816406 -14.773438 16.21875 -13.539062 16.21875 -11.875 L 16.21875 -0.421875 C 16.21875 -0.140625 16.0625 0 15.75 0 L 14.203125 0 C 13.921875 0 13.78125 -0.140625 13.78125 -0.421875 L 13.78125 -1.578125 L 13.609375 -1.578125 C 13.347656 -1.097656 12.910156 -0.6875 12.296875 -0.34375 C 11.679688 0 10.925781 0.171875 10.03125 0.171875 L 6.578125 0.171875 C 5.265625 0.171875 4.265625 -0.164062 3.578125 -0.84375 C 2.898438 -1.53125 2.5625 -2.539062 2.5625 -3.875 L 2.5625 -5.234375 C 2.5625 -6.546875 2.898438 -7.539062 3.578125 -8.21875 C 4.265625 -8.90625 5.265625 -9.25 6.578125 -9.25 L 13.78125 -9.25 L 13.78125 -11.875 C 13.78125 -12.882812 13.578125 -13.59375 13.171875 -14 C 12.765625 -14.40625 12.054688 -14.609375 11.046875 -14.609375 L 7.765625 -14.609375 C 6.890625 -14.609375 6.257812 -14.414062 5.875 -14.03125 C 5.488281 -13.644531 5.296875 -13.015625 5.296875 -12.140625 L 5.296875 -11.609375 C 5.296875 -11.328125 5.15625 -11.1875 4.875 -11.1875 L 3.328125 -11.1875 C 3.035156 -11.1875 2.890625 -11.328125 2.890625 -11.609375 L 2.890625 -12.234375 C 2.890625 -13.796875 3.265625 -14.941406 4.015625 -15.671875 C 4.773438 -16.410156 5.988281 -16.78125 7.65625 -16.78125 Z M 11.046875 -2 C 12.054688 -2 12.765625 -2.207031 13.171875 -2.625 C 13.578125 -3.039062 13.78125 -3.742188 13.78125 -4.734375 L 13.78125 -7.078125 L 7 -7.078125 C 6.28125 -7.078125 5.757812 -6.914062 5.4375 -6.59375 C 5.125 -6.28125 4.96875 -5.769531 4.96875 -5.0625 L 4.96875 -4.046875 C 4.96875 -3.316406 5.125 -2.789062 5.4375 -2.46875 C 5.757812 -2.15625 6.28125 -2 7 -2 Z M 11.046875 -2 "/></g></g></g><g fill="#ffffff" fill-opacity="1"><g transform="translate(290.056417, 37.153914)"><g><path d="M 3.328125 0 C 3.035156 0 2.890625 -0.140625 2.890625 -0.421875 L 2.890625 -22.59375 C 2.890625 -22.875 3.035156 -23.015625 3.328125 -23.015625 L 4.875 -23.015625 C 5.15625 -23.015625 5.296875 -22.875 5.296875 -22.59375 L 5.296875 -15.0625 L 5.453125 -15.0625 C 5.703125 -15.519531 6.140625 -15.921875 6.765625 -16.265625 C 7.390625 -16.609375 8.148438 -16.78125 9.046875 -16.78125 L 11.484375 -16.78125 C 13.148438 -16.78125 14.378906 -16.378906 15.171875 -15.578125 C 15.972656 -14.773438 16.375 -13.539062 16.375 -11.875 L 16.375 -4.90625 C 16.375 -3.238281 15.972656 -2.003906 15.171875 -1.203125 C 14.378906 -0.398438 13.148438 0 11.484375 0 Z M 11.21875 -2.171875 C 12.226562 -2.171875 12.9375 -2.378906 13.34375 -2.796875 C 13.75 -3.210938 13.953125 -3.914062 13.953125 -4.90625 L 13.953125 -11.875 C 13.953125 -12.882812 13.75 -13.59375 13.34375 -14 C 12.9375 -14.40625 12.226562 -14.609375 11.21875 -14.609375 L 8.03125 -14.609375 C 7.039062 -14.609375 6.335938 -14.40625 5.921875 -14 C 5.503906 -13.59375 5.296875 -12.882812 5.296875 -11.875 L 5.296875 -2.171875 Z M 11.21875 -2.171875 "/></g></g></g><g fill="#000000" fill-opacity="1"><g transform="translate(308.97747, 37.153914)"><g><path d="M 6.78125 0.171875 C 5.238281 0.171875 4.097656 -0.175781 3.359375 -0.875 C 2.628906 -1.582031 2.265625 -2.660156 2.265625 -4.109375 L 2.265625 -5.0625 C 2.265625 -5.375 2.410156 -5.53125 2.703125 -5.53125 L 4.25 -5.53125 C 4.550781 -5.53125 4.703125 -5.375 4.703125 -5.0625 L 4.703125 -4.40625 C 4.703125 -2.800781 5.492188 -2 7.078125 -2 L 11.3125 -2 C 12.820312 -2 13.578125 -2.679688 13.578125 -4.046875 L 13.578125 -5.359375 C 13.578125 -5.953125 13.382812 -6.410156 13 -6.734375 C 12.625 -7.066406 12.0625 -7.234375 11.3125 -7.234375 L 7.109375 -7.234375 C 5.585938 -7.234375 4.453125 -7.566406 3.703125 -8.234375 C 2.960938 -8.910156 2.59375 -9.925781 2.59375 -11.28125 L 2.59375 -12.765625 C 2.59375 -15.441406 4.097656 -16.78125 7.109375 -16.78125 L 10.65625 -16.78125 C 12.1875 -16.78125 13.316406 -16.425781 14.046875 -15.71875 C 14.785156 -15.019531 15.15625 -13.945312 15.15625 -12.5 L 15.15625 -11.875 C 15.15625 -11.59375 15.015625 -11.453125 14.734375 -11.453125 L 13.1875 -11.453125 C 12.90625 -11.453125 12.765625 -11.59375 12.765625 -11.875 L 12.765625 -12.46875 C 12.765625 -13.894531 11.984375 -14.609375 10.421875 -14.609375 L 7.265625 -14.609375 C 5.773438 -14.609375 5.03125 -13.9375 5.03125 -12.59375 L 5.03125 -11.453125 C 5.03125 -10.085938 5.773438 -9.40625 7.265625 -9.40625 L 11.609375 -9.40625 C 13.117188 -9.40625 14.222656 -9.082031 14.921875 -8.4375 C 15.628906 -7.789062 15.984375 -6.820312 15.984375 -5.53125 L 15.984375 -3.875 C 15.984375 -1.175781 14.484375 0.171875 11.484375 0.171875 Z M 6.78125 0.171875 "/></g></g></g><g clip-path="url(#87d4314a8d)"><path fill="#ffffff" d="M 323.890625 21.609375 C 323.835938 21.253906 323.574219 20.972656 323.328125 20.714844 C 322.976562 20.34375 322.621094 19.972656 322.203125 19.675781 C 321.789062 19.378906 321.304688 19.15625 320.796875 19.125 C 320.066406 19.085938 319.355469 19.4375 318.625 19.402344 C 318.007812 19.371094 317.441406 19.074219 316.878906 18.820312 C 316.007812 18.433594 314.886719 18.203125 314.230469 19.09375 C 313.941406 19.484375 313.851562 20 313.996094 20.464844 C 314.050781 20.632812 314.132812 20.789062 314.195312 20.953125 C 314.257812 21.113281 314.28125 21.285156 314.308594 21.457031 C 314.375 21.894531 314.339844 22.347656 314.207031 22.769531 C 314.066406 23.203125 313.832031 23.609375 313.761719 24.066406 C 313.6875 24.53125 313.742188 25.035156 313.949219 25.460938 C 314.039062 25.644531 314.222656 25.820312 314.445312 25.804688 C 314.773438 25.773438 314.890625 25.378906 314.957031 25.113281 C 315.160156 24.3125 315.039062 23.488281 314.917969 22.683594 C 314.875 22.382812 314.824219 22.082031 314.832031 21.78125 C 314.835938 21.515625 314.914062 20.695312 315.347656 20.84375 C 315.425781 20.867188 315.480469 20.941406 315.507812 21.015625 C 315.546875 21.144531 315.519531 21.28125 315.492188 21.410156 C 315.464844 21.539062 315.433594 21.675781 315.472656 21.800781 C 315.546875 22.046875 315.828125 22.0625 315.964844 21.859375 C 316.039062 21.746094 316.046875 21.601562 316.03125 21.46875 C 316.007812 21.269531 315.933594 21.074219 315.949219 20.875 C 315.964844 20.675781 316.117188 20.460938 316.316406 20.480469 C 316.566406 20.507812 316.640625 20.832031 316.636719 21.082031 C 316.632812 21.476562 316.582031 21.867188 316.511719 22.253906 C 316.453125 22.578125 316.300781 22.894531 316.292969 23.230469 C 316.289062 23.457031 316.445312 23.71875 316.683594 23.757812 C 317.050781 23.820312 317.25 23.433594 317.34375 23.136719 C 317.488281 22.667969 317.496094 22.171875 317.390625 21.691406 C 317.34375 21.46875 317.246094 21.25 317.285156 21.019531 C 317.320312 20.828125 317.527344 20.605469 317.734375 20.707031 C 317.890625 20.785156 317.917969 20.992188 317.953125 21.164062 C 317.984375 21.335938 318.097656 21.539062 318.273438 21.511719 C 318.546875 21.46875 318.527344 20.925781 318.804688 20.933594 C 318.949219 20.9375 319.027344 21.105469 319.042969 21.25 C 319.058594 21.390625 319.046875 21.554688 319.144531 21.664062 C 319.339844 21.890625 319.6875 21.710938 319.933594 21.800781 C 320.21875 21.90625 320.269531 22.269531 320.265625 22.53125 C 320.261719 23.03125 320.226562 23.527344 320.1875 24.027344 C 320.160156 24.386719 320.070312 24.761719 320.121094 25.125 C 320.179688 25.507812 320.550781 25.996094 320.957031 25.660156 C 321.066406 25.570312 321.136719 25.4375 321.175781 25.300781 C 321.460938 24.34375 320.851562 23.449219 320.671875 22.535156 C 320.636719 22.347656 320.609375 22.152344 320.660156 21.96875 C 320.707031 21.785156 320.851562 21.613281 321.039062 21.582031 C 321.175781 21.558594 321.320312 21.613281 321.429688 21.703125 C 321.550781 21.800781 321.636719 21.945312 321.65625 22.097656 C 321.667969 22.242188 321.625 22.382812 321.582031 22.515625 C 321.539062 22.652344 321.492188 22.792969 321.5 22.933594 C 321.507812 23.078125 321.582031 23.226562 321.714844 23.277344 C 321.804688 23.3125 321.914062 23.292969 321.988281 23.234375 C 322.09375 23.152344 322.101562 23.007812 322.105469 22.886719 C 322.117188 22.648438 322.078125 22.417969 322.058594 22.183594 C 322.046875 22.035156 322.039062 21.835938 322.21875 21.785156 C 322.402344 21.738281 322.617188 21.90625 322.746094 22.011719 C 322.925781 22.164062 323.105469 22.351562 323.339844 22.367188 C 323.699219 22.390625 323.949219 21.964844 323.890625 21.609375 Z M 323.890625 21.609375 " fill-opacity="1" fill-rule="nonzero"/></g></svg>