<svg xmlns="http://www.w3.org/2000/svg" xmlns:xlink="http://www.w3.org/1999/xlink" width="483" zoomAndPan="magnify" viewBox="0 0 362.25 38.999999" height="52" preserveAspectRatio="xMidYMid meet" version="1.0"><defs><g/><clipPath id="ef554b9ba8"><path d="M 0 0.0390625 L 361.5 0.0390625 L 361.5 38.957031 L 0 38.957031 Z M 0 0.0390625 " clip-rule="nonzero"/></clipPath><linearGradient x1="0" gradientTransform="matrix(0.74845, 0, 0, 0.74845, 0, 0.0402888)" y1="0" x2="0" gradientUnits="userSpaceOnUse" y2="51.999998" id="b150ed917d"><stop stop-opacity="1" stop-color="rgb(30.999756%, 27.49939%, 89.7995%)" offset="0"/><stop stop-opacity="1" stop-color="rgb(31.036377%, 27.384949%, 89.654541%)" offset="0.015625"/><stop stop-opacity="1" stop-color="rgb(31.109619%, 27.156067%, 89.367676%)" offset="0.03125"/><stop stop-opacity="1" stop-color="rgb(31.182861%, 26.928711%, 89.080811%)" offset="0.046875"/><stop stop-opacity="1" stop-color="rgb(31.256104%, 26.699829%, 88.792419%)" offset="0.0625"/><stop stop-opacity="1" stop-color="rgb(31.329346%, 26.472473%, 88.505554%)" offset="0.078125"/><stop stop-opacity="1" stop-color="rgb(31.402588%, 26.243591%, 88.217163%)" offset="0.09375"/><stop stop-opacity="1" stop-color="rgb(31.47583%, 26.016235%, 87.930298%)" offset="0.109375"/><stop stop-opacity="1" stop-color="rgb(31.550598%, 25.787354%, 87.643433%)" offset="0.125"/><stop stop-opacity="1" stop-color="rgb(31.62384%, 25.559998%, 87.355042%)" offset="0.140625"/><stop stop-opacity="1" stop-color="rgb(31.697083%, 25.331116%, 87.068176%)" offset="0.15625"/><stop stop-opacity="1" stop-color="rgb(31.770325%, 25.10376%, 86.779785%)" offset="0.171875"/><stop stop-opacity="1" stop-color="rgb(31.843567%, 24.874878%, 86.49292%)" offset="0.1875"/><stop stop-opacity="1" stop-color="rgb(31.916809%, 24.647522%, 86.204529%)" offset="0.203125"/><stop stop-opacity="1" stop-color="rgb(31.990051%, 24.41864%, 85.917664%)" offset="0.21875"/><stop stop-opacity="1" stop-color="rgb(32.063293%, 24.191284%, 85.630798%)" offset="0.234375"/><stop stop-opacity="1" stop-color="rgb(32.138062%, 23.962402%, 85.342407%)" offset="0.25"/><stop stop-opacity="1" stop-color="rgb(32.211304%, 23.735046%, 85.055542%)" offset="0.265625"/><stop stop-opacity="1" stop-color="rgb(32.284546%, 23.506165%, 84.767151%)" offset="0.28125"/><stop stop-opacity="1" stop-color="rgb(32.357788%, 23.278809%, 84.480286%)" offset="0.296875"/><stop stop-opacity="1" stop-color="rgb(32.43103%, 23.049927%, 84.19342%)" offset="0.3125"/><stop stop-opacity="1" stop-color="rgb(32.504272%, 22.822571%, 83.905029%)" offset="0.328125"/><stop stop-opacity="1" stop-color="rgb(32.577515%, 22.593689%, 83.618164%)" offset="0.34375"/><stop stop-opacity="1" stop-color="rgb(32.650757%, 22.366333%, 83.329773%)" offset="0.359375"/><stop stop-opacity="1" stop-color="rgb(32.725525%, 22.137451%, 83.042908%)" offset="0.375"/><stop stop-opacity="1" stop-color="rgb(32.798767%, 21.910095%, 82.754517%)" offset="0.390625"/><stop stop-opacity="1" stop-color="rgb(32.872009%, 21.681213%, 82.467651%)" offset="0.40625"/><stop stop-opacity="1" stop-color="rgb(32.945251%, 21.453857%, 82.180786%)" offset="0.421875"/><stop stop-opacity="1" stop-color="rgb(33.018494%, 21.224976%, 81.892395%)" offset="0.4375"/><stop stop-opacity="1" stop-color="rgb(33.091736%, 20.99762%, 81.60553%)" offset="0.453125"/><stop stop-opacity="1" stop-color="rgb(33.164978%, 20.768738%, 81.317139%)" offset="0.46875"/><stop stop-opacity="1" stop-color="rgb(33.23822%, 20.541382%, 81.030273%)" offset="0.484375"/><stop stop-opacity="1" stop-color="rgb(33.312988%, 20.3125%, 80.743408%)" offset="0.5"/><stop stop-opacity="1" stop-color="rgb(33.38623%, 20.085144%, 80.455017%)" offset="0.515625"/><stop stop-opacity="1" stop-color="rgb(33.459473%, 19.856262%, 80.168152%)" offset="0.53125"/><stop stop-opacity="1" stop-color="rgb(33.532715%, 19.628906%, 79.879761%)" offset="0.546875"/><stop stop-opacity="1" stop-color="rgb(33.605957%, 19.400024%, 79.592896%)" offset="0.5625"/><stop stop-opacity="1" stop-color="rgb(33.679199%, 19.172668%, 79.304504%)" offset="0.578125"/><stop stop-opacity="1" stop-color="rgb(33.752441%, 18.943787%, 79.017639%)" offset="0.59375"/><stop stop-opacity="1" stop-color="rgb(33.827209%, 18.716431%, 78.730774%)" offset="0.609375"/><stop stop-opacity="1" stop-color="rgb(33.900452%, 18.487549%, 78.442383%)" offset="0.625"/><stop stop-opacity="1" stop-color="rgb(33.973694%, 18.260193%, 78.155518%)" offset="0.640625"/><stop stop-opacity="1" stop-color="rgb(34.046936%, 18.031311%, 77.867126%)" offset="0.65625"/><stop stop-opacity="1" stop-color="rgb(34.120178%, 17.803955%, 77.580261%)" offset="0.671875"/><stop stop-opacity="1" stop-color="rgb(34.19342%, 17.575073%, 77.293396%)" offset="0.6875"/><stop stop-opacity="1" stop-color="rgb(34.266663%, 17.347717%, 77.005005%)" offset="0.703125"/><stop stop-opacity="1" stop-color="rgb(34.339905%, 17.118835%, 76.71814%)" offset="0.71875"/><stop stop-opacity="1" stop-color="rgb(34.414673%, 16.891479%, 76.429749%)" offset="0.734375"/><stop stop-opacity="1" stop-color="rgb(34.487915%, 16.662598%, 76.142883%)" offset="0.75"/><stop stop-opacity="1" stop-color="rgb(34.561157%, 16.435242%, 75.854492%)" offset="0.765625"/><stop stop-opacity="1" stop-color="rgb(34.634399%, 16.20636%, 75.567627%)" offset="0.78125"/><stop stop-opacity="1" stop-color="rgb(34.707642%, 15.979004%, 75.280762%)" offset="0.796875"/><stop stop-opacity="1" stop-color="rgb(34.780884%, 15.750122%, 74.992371%)" offset="0.8125"/><stop stop-opacity="1" stop-color="rgb(34.854126%, 15.522766%, 74.705505%)" offset="0.828125"/><stop stop-opacity="1" stop-color="rgb(34.927368%, 15.293884%, 74.417114%)" offset="0.84375"/><stop stop-opacity="1" stop-color="rgb(35.002136%, 15.066528%, 74.130249%)" offset="0.859375"/><stop stop-opacity="1" stop-color="rgb(35.075378%, 14.837646%, 73.843384%)" offset="0.875"/><stop stop-opacity="1" stop-color="rgb(35.148621%, 14.610291%, 73.554993%)" offset="0.890625"/><stop stop-opacity="1" stop-color="rgb(35.221863%, 14.381409%, 73.268127%)" offset="0.90625"/><stop stop-opacity="1" stop-color="rgb(35.295105%, 14.154053%, 72.979736%)" offset="0.921875"/><stop stop-opacity="1" stop-color="rgb(35.368347%, 13.925171%, 72.692871%)" offset="0.9375"/><stop stop-opacity="1" stop-color="rgb(35.441589%, 13.697815%, 72.40448%)" offset="0.953125"/><stop stop-opacity="1" stop-color="rgb(35.514832%, 13.468933%, 72.117615%)" offset="0.96875"/><stop stop-opacity="1" stop-color="rgb(35.5896%, 13.241577%, 71.83075%)" offset="0.984375"/><stop stop-opacity="1" stop-color="rgb(35.662842%, 13.012695%, 71.542358%)" offset="1"/></linearGradient><clipPath id="f1ec6de870"><path d="M 322 1 L 331.757812 1 L 331.757812 8 L 322 8 Z M 322 1 " clip-rule="nonzero"/></clipPath><clipPath id="55d2602d32"><path d="M 308.554688 8.722656 L 316.53125 8.722656 L 316.53125 15.007812 L 308.554688 15.007812 Z M 308.554688 8.722656 " clip-rule="nonzero"/></clipPath><clipPath id="88294aa7fb"><path d="M 308.554688 1 L 331 1 L 331 15 L 308.554688 15 Z M 308.554688 1 " clip-rule="nonzero"/></clipPath><clipPath id="f1b06d3348"><path d="M 303.554688 12 L 313.285156 12 L 313.285156 19.390625 L 303.554688 19.390625 Z M 303.554688 12 " clip-rule="nonzero"/></clipPath></defs><g clip-path="url(#ef554b9ba8)"><path fill="url(#b150ed917d)" d="M 0 0.0390625 L 0 38.960938 L 361.5 38.960938 L 361.5 0.0390625 Z M 0 0.0390625 " fill-rule="nonzero"/></g><g clip-path="url(#f1ec6de870)"><path fill="#0cc0df" d="M 327.078125 5.894531 C 326.265625 6.429688 326.070312 7.722656 324.953125 7.589844 C 323.917969 7.460938 323.472656 6.480469 323.113281 5.625 C 322.792969 4.855469 322.421875 3.722656 322.808594 2.90625 C 323.039062 2.425781 323.539062 2.230469 324.050781 2.324219 C 324.632812 2.429688 324.875 2.386719 325.464844 2.195312 C 326.792969 1.757812 330.152344 0.0390625 330.941406 2.101562 C 331.824219 4.410156 328.429688 5 327.078125 5.894531 " fill-opacity="1" fill-rule="nonzero"/></g><path fill="#aad0ff" d="M 324.789062 5.742188 C 324.78125 5.75 324.769531 5.761719 324.757812 5.765625 C 323.097656 6.699219 318.964844 8.699219 317.503906 9.363281 C 316.234375 9.9375 314.933594 10.496094 313.710938 11.171875 C 313.25 11.429688 312.632812 11.90625 312.074219 11.886719 C 311.707031 11.871094 311.464844 11.601562 311.070312 11.628906 C 310.535156 11.660156 308.800781 12.171875 309.761719 10.996094 C 309.960938 10.75 310.246094 10.574219 310.414062 10.296875 C 310.558594 10.050781 310.566406 9.742188 310.734375 9.507812 C 311.007812 9.121094 311.539062 8.972656 311.96875 8.835938 C 313.238281 8.433594 314.425781 7.84375 315.640625 7.3125 C 316.933594 6.742188 318.277344 6.289062 319.582031 5.742188 C 320.816406 5.226562 322.695312 4.378906 323.902344 3.808594 C 323.914062 3.800781 323.925781 3.796875 323.9375 3.792969 C 324.253906 4.125 324.492188 4.738281 324.578125 4.96875 C 324.648438 5.160156 324.742188 5.457031 324.789062 5.742188 " fill-opacity="1" fill-rule="nonzero"/><g clip-path="url(#55d2602d32)"><path fill="#ffffff" d="M 309.457031 13.109375 C 309.445312 12.949219 309.542969 12.25 309.480469 12.164062 C 309.230469 11.816406 308.6875 13.0625 308.636719 13.269531 C 308.53125 13.734375 308.488281 14.375 308.785156 14.785156 C 308.941406 15.003906 309.191406 15.148438 309.421875 14.949219 C 309.640625 14.757812 309.566406 14.363281 309.535156 14.109375 C 309.496094 13.777344 309.476562 13.445312 309.457031 13.109375 Z M 316.253906 9.597656 C 315.980469 9.757812 315.597656 9.839844 315.300781 9.957031 C 314.667969 10.203125 314.042969 10.472656 313.425781 10.761719 C 312.910156 11.003906 312.382812 11.40625 311.792969 11.265625 C 311.488281 11.195312 311.328125 11.140625 311.011719 11.1875 C 310.84375 11.214844 310.351562 11.367188 310.261719 11.121094 C 310.179688 10.902344 310.617188 10.585938 310.769531 10.433594 C 310.835938 10.371094 311 10.265625 311.035156 10.1875 C 311.078125 10.078125 311.003906 9.878906 311.0625 9.738281 C 311.28125 9.214844 312.046875 9.054688 312.519531 8.875 C 313.183594 8.621094 313.613281 8.859375 314.261719 9.035156 C 314.925781 9.214844 315.441406 9.164062 316.125 9.234375 C 316.882812 9.316406 316.332031 9.554688 316.253906 9.597656 " fill-opacity="1" fill-rule="nonzero"/></g><g clip-path="url(#88294aa7fb)"><path fill="#ffffff" d="M 309.394531 14.585938 C 309.390625 14.554688 309.359375 14.535156 309.335938 14.527344 C 309.269531 14.503906 309.230469 14.539062 309.171875 14.53125 C 309.042969 14.519531 308.976562 14.335938 308.949219 14.238281 C 308.882812 14.03125 308.875 13.796875 308.863281 13.578125 C 308.859375 13.519531 308.761719 13.496094 308.75 13.5625 C 308.691406 13.878906 308.648438 14.199219 308.785156 14.503906 C 308.882812 14.722656 309.101562 14.882812 309.335938 14.753906 C 309.394531 14.722656 309.40625 14.664062 309.398438 14.605469 C 309.398438 14.601562 309.394531 14.59375 309.394531 14.585938 Z M 323.816406 4.191406 C 323.621094 4.1875 323.492188 4.238281 323.316406 4.316406 C 323.144531 4.390625 322.945312 4.453125 322.8125 4.585938 C 322.773438 4.628906 322.800781 4.703125 322.859375 4.699219 C 323.035156 4.695312 323.199219 4.605469 323.359375 4.539062 C 323.546875 4.457031 323.695312 4.394531 323.835938 4.238281 C 323.851562 4.222656 323.839844 4.191406 323.816406 4.191406 Z M 322.386719 4.859375 C 322.046875 4.859375 321.707031 5.078125 321.402344 5.207031 C 321.070312 5.34375 320.742188 5.484375 320.414062 5.628906 C 319.722656 5.929688 319.035156 6.234375 318.339844 6.523438 C 317.664062 6.808594 316.988281 7.097656 316.316406 7.390625 C 315.960938 7.546875 315.605469 7.699219 315.25 7.855469 C 314.929688 8 314.582031 8.117188 314.304688 8.339844 C 314.273438 8.359375 314.296875 8.417969 314.335938 8.414062 C 314.683594 8.367188 315.015625 8.199219 315.339844 8.066406 C 315.699219 7.917969 316.054688 7.769531 316.414062 7.617188 C 317.089844 7.335938 317.765625 7.046875 318.433594 6.742188 C 319.097656 6.445312 319.769531 6.160156 320.433594 5.871094 C 320.785156 5.71875 321.136719 5.566406 321.488281 5.410156 C 321.789062 5.273438 322.1875 5.171875 322.414062 4.925781 C 322.4375 4.902344 322.421875 4.859375 322.386719 4.859375 Z M 313.089844 8.871094 C 312.878906 8.847656 312.683594 8.964844 312.492188 9.042969 C 312.285156 9.128906 312.074219 9.210938 311.867188 9.304688 C 311.621094 9.414062 311.378906 9.582031 311.433594 9.886719 C 311.4375 9.910156 311.464844 9.9375 311.492188 9.941406 C 311.507812 9.945312 311.527344 9.957031 311.542969 9.945312 C 311.65625 9.851562 311.605469 9.703125 311.742188 9.59375 C 311.878906 9.492188 312.0625 9.445312 312.21875 9.382812 C 312.496094 9.273438 312.925781 9.183594 313.121094 8.945312 C 313.144531 8.914062 313.128906 8.875 313.089844 8.871094 Z M 311.316406 10.371094 C 311.230469 10.339844 311.167969 10.402344 311.101562 10.453125 C 311 10.523438 310.898438 10.597656 310.800781 10.671875 C 310.691406 10.753906 310.53125 10.878906 310.566406 11.035156 C 310.578125 11.089844 310.644531 11.085938 310.675781 11.046875 C 310.722656 10.980469 310.753906 10.910156 310.820312 10.855469 C 310.886719 10.800781 310.96875 10.75 311.042969 10.699219 C 311.136719 10.632812 311.347656 10.542969 311.34375 10.40625 C 311.34375 10.390625 311.332031 10.378906 311.316406 10.371094 Z M 324.449219 2.644531 C 324.167969 2.558594 323.734375 2.613281 323.457031 2.710938 C 323.238281 2.785156 323.007812 2.9375 322.945312 3.171875 C 322.933594 3.210938 322.988281 3.246094 323.015625 3.214844 C 323.191406 3.011719 323.382812 2.882812 323.652344 2.832031 C 323.914062 2.785156 324.214844 2.851562 324.460938 2.746094 C 324.507812 2.726562 324.488281 2.65625 324.449219 2.644531 Z M 330.339844 2.019531 C 330.203125 1.996094 330.089844 1.910156 329.960938 1.859375 C 329.816406 1.804688 329.664062 1.765625 329.507812 1.75 C 329.1875 1.714844 328.863281 1.753906 328.546875 1.808594 C 328.238281 1.859375 327.929688 1.925781 327.617188 1.984375 C 327.332031 2.039062 327.011719 2.15625 326.71875 2.136719 C 326.703125 2.136719 326.695312 2.117188 326.710938 2.105469 C 326.984375 1.910156 327.402344 1.839844 327.726562 1.753906 C 328.066406 1.664062 328.417969 1.585938 328.769531 1.539062 C 329.070312 1.5 329.378906 1.488281 329.679688 1.542969 C 329.925781 1.585938 330.292969 1.679688 330.417969 1.917969 C 330.449219 1.972656 330.398438 2.03125 330.339844 2.019531 " fill-opacity="1" fill-rule="nonzero"/></g><path fill="#2e2e30" d="M 320.609375 6.535156 C 320.566406 6.503906 320.507812 6.511719 320.484375 6.570312 C 320.429688 6.730469 320.53125 6.929688 320.582031 7.085938 C 320.628906 7.234375 320.660156 7.433594 320.804688 7.515625 C 320.855469 7.546875 320.914062 7.519531 320.929688 7.464844 C 320.980469 7.3125 320.871094 7.132812 320.820312 6.984375 C 320.769531 6.839844 320.734375 6.632812 320.609375 6.535156 Z M 318.40625 7.484375 C 318.34375 7.386719 318.210938 7.449219 318.226562 7.558594 C 318.257812 7.742188 318.347656 7.925781 318.414062 8.097656 C 318.472656 8.246094 318.507812 8.375 318.636719 8.46875 C 318.667969 8.496094 318.730469 8.46875 318.738281 8.429688 C 318.765625 8.261719 318.691406 8.125 318.628906 7.96875 C 318.5625 7.808594 318.507812 7.628906 318.40625 7.484375 Z M 316.15625 8.367188 C 316.132812 8.355469 316.097656 8.371094 316.085938 8.394531 C 316.011719 8.554688 316.117188 8.746094 316.164062 8.902344 C 316.214844 9.0625 316.226562 9.308594 316.386719 9.394531 C 316.433594 9.417969 316.492188 9.40625 316.523438 9.359375 C 316.625 9.191406 316.488281 8.960938 316.425781 8.792969 C 316.371094 8.640625 316.320312 8.429688 316.15625 8.367188 Z M 313.96875 9.355469 C 313.929688 9.289062 313.808594 9.308594 313.816406 9.394531 C 313.835938 9.570312 313.894531 9.738281 313.949219 9.90625 C 313.996094 10.054688 314.023438 10.246094 314.148438 10.351562 C 314.195312 10.386719 314.273438 10.378906 314.285156 10.3125 C 314.324219 10.152344 314.234375 9.996094 314.179688 9.84375 C 314.121094 9.679688 314.0625 9.503906 313.96875 9.355469 Z M 326.191406 5.3125 C 326.109375 4.917969 325.996094 4.535156 325.859375 4.160156 C 325.738281 3.832031 325.601562 3.515625 325.410156 3.222656 C 325.253906 2.980469 325.058594 2.679688 324.800781 2.542969 C 324.769531 2.527344 324.738281 2.558594 324.753906 2.589844 C 324.894531 2.875 325.140625 3.109375 325.296875 3.390625 C 325.464844 3.695312 325.59375 4.027344 325.703125 4.359375 C 325.816406 4.6875 325.910156 5.027344 325.988281 5.367188 C 326.058594 5.679688 326.054688 6.066406 326.199219 6.355469 C 326.222656 6.398438 326.292969 6.386719 326.304688 6.339844 C 326.386719 6.027344 326.257812 5.621094 326.191406 5.3125 Z M 324.929688 5.902344 C 324.984375 6.15625 325.117188 6.582031 324.980469 6.820312 C 324.960938 6.855469 324.917969 6.847656 324.894531 6.820312 C 324.8125 6.707031 324.816406 6.589844 324.800781 6.457031 C 324.789062 6.351562 324.773438 6.25 324.757812 6.148438 C 324.734375 6.503906 324.585938 6.707031 324.160156 6.335938 C 324.105469 6.289062 324.054688 6.234375 324.007812 6.171875 C 324.257812 6.039062 324.488281 5.917969 324.683594 5.808594 C 324.605469 5.484375 324.496094 5.175781 324.363281 4.871094 C 324.238281 4.582031 324.113281 4.289062 323.964844 4.007812 C 323.933594 3.945312 323.898438 3.886719 323.859375 3.828125 C 323.65625 3.921875 323.441406 4.027344 323.210938 4.132812 C 323.175781 3.851562 323.226562 3.597656 323.519531 3.566406 C 323.574219 3.5625 323.628906 3.566406 323.679688 3.582031 C 323.605469 3.488281 323.53125 3.394531 323.464844 3.296875 C 323.429688 3.242188 323.496094 3.191406 323.542969 3.214844 C 323.800781 3.339844 323.980469 3.628906 324.117188 3.871094 C 324.296875 4.1875 324.441406 4.523438 324.585938 4.855469 C 324.730469 5.195312 324.847656 5.542969 324.929688 5.902344 " fill-opacity="1" fill-rule="nonzero"/><g fill="#ffffff" fill-opacity="1"><g transform="translate(45.246165, 30.352529)"><g><path d="M 18.671875 -12.640625 C 20.097656 -12.597656 21.179688 -12.175781 21.921875 -11.375 C 22.671875 -10.582031 23.046875 -9.375 23.046875 -7.75 L 23.046875 -5.375 C 23.046875 -3.5 22.625 -2.132812 21.78125 -1.28125 C 20.9375 -0.425781 19.578125 0 17.703125 0 L 3.359375 0 C 2.929688 0 2.71875 -0.210938 2.71875 -0.640625 L 2.71875 -21.765625 C 2.71875 -22.191406 2.929688 -22.40625 3.359375 -22.40625 L 15.46875 -22.40625 C 17.101562 -22.40625 18.320312 -22.03125 19.125 -21.28125 C 19.925781 -20.539062 20.328125 -19.421875 20.328125 -17.921875 L 20.328125 -16.484375 C 20.328125 -14.546875 19.773438 -13.351562 18.671875 -12.90625 Z M 7.6875 -18.5625 L 7.6875 -13.453125 L 13.546875 -13.453125 C 14.242188 -13.453125 14.738281 -13.59375 15.03125 -13.875 C 15.320312 -14.164062 15.46875 -14.664062 15.46875 -15.375 L 15.46875 -16.75 C 15.46875 -17.40625 15.328125 -17.867188 15.046875 -18.140625 C 14.765625 -18.421875 14.296875 -18.5625 13.640625 -18.5625 Z M 18.09375 -7.6875 C 18.09375 -8.382812 17.945312 -8.878906 17.65625 -9.171875 C 17.363281 -9.460938 16.867188 -9.609375 16.171875 -9.609375 L 7.6875 -9.609375 L 7.6875 -3.84375 L 16.171875 -3.84375 C 16.867188 -3.84375 17.363281 -3.984375 17.65625 -4.265625 C 17.945312 -4.554688 18.09375 -5.054688 18.09375 -5.765625 Z M 18.09375 -7.6875 "/></g></g></g><g fill="#ffffff" fill-opacity="1"><g transform="translate(69.9883, 30.352529)"><g><path d="M 12.90625 -16.8125 C 14.65625 -16.8125 15.925781 -16.410156 16.71875 -15.609375 C 17.519531 -14.804688 17.921875 -13.53125 17.921875 -11.78125 L 17.921875 -0.640625 C 17.921875 -0.210938 17.707031 0 17.28125 0 L 13.859375 0 C 13.429688 0 13.21875 -0.210938 13.21875 -0.640625 L 13.21875 -2.015625 L 12.96875 -2.015625 C 12.820312 -1.503906 12.414062 -1.015625 11.75 -0.546875 C 11.082031 -0.078125 10.132812 0.15625 8.90625 0.15625 L 6.078125 0.15625 C 4.671875 0.15625 3.625 -0.179688 2.9375 -0.859375 C 2.257812 -1.546875 1.921875 -2.59375 1.921875 -4 L 1.921875 -5.4375 C 1.921875 -6.875 2.257812 -7.925781 2.9375 -8.59375 C 3.625 -9.269531 4.671875 -9.609375 6.078125 -9.609375 L 13.21875 -9.609375 L 13.21875 -11.8125 C 13.21875 -12.519531 13.082031 -13.003906 12.8125 -13.265625 C 12.550781 -13.535156 12.066406 -13.671875 11.359375 -13.671875 L 8.578125 -13.671875 C 8.023438 -13.671875 7.628906 -13.554688 7.390625 -13.328125 C 7.160156 -13.109375 7.046875 -12.734375 7.046875 -12.203125 L 7.046875 -11.6875 C 7.046875 -11.257812 6.832031 -11.046875 6.40625 -11.046875 L 2.875 -11.046875 C 2.445312 -11.046875 2.234375 -11.257812 2.234375 -11.6875 L 2.234375 -12.328125 C 2.234375 -13.898438 2.613281 -15.039062 3.375 -15.75 C 4.132812 -16.457031 5.390625 -16.8125 7.140625 -16.8125 Z M 11.359375 -3.140625 C 12.066406 -3.140625 12.550781 -3.269531 12.8125 -3.53125 C 13.082031 -3.800781 13.21875 -4.289062 13.21875 -5 L 13.21875 -6.46875 L 8 -6.46875 C 7.488281 -6.46875 7.132812 -6.363281 6.9375 -6.15625 C 6.75 -5.957031 6.65625 -5.601562 6.65625 -5.09375 L 6.65625 -4.671875 C 6.65625 -4.097656 6.757812 -3.695312 6.96875 -3.46875 C 7.1875 -3.25 7.582031 -3.140625 8.15625 -3.140625 Z M 11.359375 -3.140625 "/></g></g></g><g fill="#ffffff" fill-opacity="1"><g transform="translate(90.057279, 30.352529)"><g><path d="M 2.984375 0 C 2.554688 0 2.34375 -0.210938 2.34375 -0.640625 L 2.34375 -16 C 2.34375 -16.425781 2.554688 -16.640625 2.984375 -16.640625 L 6.40625 -16.640625 C 6.832031 -16.640625 7.046875 -16.425781 7.046875 -16 L 7.046875 -14.65625 L 7.296875 -14.65625 C 7.535156 -15.320312 8.015625 -15.847656 8.734375 -16.234375 C 9.460938 -16.617188 10.335938 -16.8125 11.359375 -16.8125 L 13.921875 -16.8125 C 14.347656 -16.8125 14.5625 -16.597656 14.5625 -16.171875 L 14.5625 -12.96875 C 14.5625 -12.539062 14.347656 -12.328125 13.921875 -12.328125 L 8.90625 -12.328125 C 8.195312 -12.328125 7.707031 -12.195312 7.4375 -11.9375 C 7.175781 -11.6875 7.046875 -11.207031 7.046875 -10.5 L 7.046875 -0.640625 C 7.046875 -0.210938 6.832031 0 6.40625 0 Z M 2.984375 0 "/></g></g></g><g fill="#ffffff" fill-opacity="1"><g transform="translate(105.261057, 30.352529)"><g><path d="M 8.421875 -12.640625 L 8.421875 -5.703125 C 8.421875 -4.992188 8.546875 -4.503906 8.796875 -4.234375 C 9.054688 -3.972656 9.539062 -3.84375 10.25 -3.84375 L 13.546875 -3.84375 C 13.972656 -3.84375 14.1875 -3.628906 14.1875 -3.203125 L 14.1875 -0.640625 C 14.1875 -0.210938 13.972656 0 13.546875 0 L 8.734375 0 C 6.984375 0 5.703125 -0.40625 4.890625 -1.21875 C 4.085938 -2.03125 3.6875 -3.3125 3.6875 -5.0625 L 3.6875 -12.640625 L 0.640625 -12.640625 C 0.210938 -12.640625 0 -12.851562 0 -13.28125 L 0 -16 C 0 -16.425781 0.210938 -16.640625 0.640625 -16.640625 L 3.6875 -16.640625 L 3.6875 -19.3125 C 3.6875 -19.738281 3.898438 -19.953125 4.328125 -19.953125 L 7.78125 -19.953125 C 8.207031 -19.953125 8.421875 -19.738281 8.421875 -19.3125 L 8.421875 -16.640625 L 13.546875 -16.640625 C 13.972656 -16.640625 14.1875 -16.425781 14.1875 -16 L 14.1875 -13.28125 C 14.1875 -12.851562 13.972656 -12.640625 13.546875 -12.640625 Z M 8.421875 -12.640625 "/></g></g></g><g fill="#ffffff" fill-opacity="1"><g transform="translate(120.304789, 30.352529)"><g><path d="M 2.078125 6.078125 C 1.648438 6.078125 1.4375 5.863281 1.4375 5.4375 L 1.4375 2.65625 C 1.4375 2.226562 1.648438 2.015625 2.078125 2.015625 L 4.296875 2.015625 C 4.742188 2.015625 5.082031 1.910156 5.3125 1.703125 C 5.550781 1.503906 5.753906 1.160156 5.921875 0.671875 L 6.25 -0.25 L 0.0625 -15.84375 C 0.0195312 -15.925781 0 -16.035156 0 -16.171875 C 0 -16.484375 0.210938 -16.640625 0.640625 -16.640625 L 3.96875 -16.640625 C 4.207031 -16.640625 4.382812 -16.597656 4.5 -16.515625 C 4.613281 -16.429688 4.710938 -16.285156 4.796875 -16.078125 L 7.046875 -9.703125 L 8.453125 -5.671875 L 8.703125 -5.671875 L 10.15625 -9.703125 L 12.390625 -16.078125 C 12.472656 -16.285156 12.570312 -16.429688 12.6875 -16.515625 C 12.8125 -16.597656 12.988281 -16.640625 13.21875 -16.640625 L 16.609375 -16.640625 C 17.015625 -16.640625 17.21875 -16.492188 17.21875 -16.203125 C 17.21875 -16.066406 17.1875 -15.9375 17.125 -15.8125 L 10.53125 1.4375 C 10.0625 2.65625 9.609375 3.585938 9.171875 4.234375 C 8.734375 4.890625 8.210938 5.359375 7.609375 5.640625 C 7.015625 5.929688 6.238281 6.078125 5.28125 6.078125 Z M 2.078125 6.078125 "/></g></g></g><g fill="#ffffff" fill-opacity="1"><g transform="translate(137.012936, 30.352529)"><g><path d="M 6.71875 0.15625 C 4.96875 0.15625 3.71875 -0.191406 2.96875 -0.890625 C 2.226562 -1.597656 1.859375 -2.742188 1.859375 -4.328125 L 1.859375 -4.96875 C 1.859375 -5.394531 2.070312 -5.609375 2.5 -5.609375 L 5.984375 -5.609375 C 6.222656 -5.609375 6.394531 -5.554688 6.5 -5.453125 C 6.601562 -5.359375 6.65625 -5.195312 6.65625 -4.96875 L 6.65625 -4.515625 C 6.65625 -3.984375 6.78125 -3.59375 7.03125 -3.34375 C 7.289062 -3.101562 7.703125 -2.984375 8.265625 -2.984375 L 11.625 -2.984375 C 12.175781 -2.984375 12.5625 -3.082031 12.78125 -3.28125 C 13.007812 -3.476562 13.125 -3.828125 13.125 -4.328125 L 13.125 -5.46875 C 13.125 -5.914062 13.007812 -6.238281 12.78125 -6.4375 C 12.5625 -6.644531 12.175781 -6.75 11.625 -6.75 L 6.5625 -6.75 C 5 -6.75 3.859375 -7.082031 3.140625 -7.75 C 2.429688 -8.425781 2.078125 -9.484375 2.078125 -10.921875 L 2.078125 -12.640625 C 2.078125 -14.078125 2.429688 -15.128906 3.140625 -15.796875 C 3.859375 -16.472656 5 -16.8125 6.5625 -16.8125 L 12.171875 -16.8125 C 13.921875 -16.8125 15.171875 -16.457031 15.921875 -15.75 C 16.679688 -15.039062 17.0625 -13.898438 17.0625 -12.328125 L 17.0625 -11.84375 C 17.0625 -11.414062 16.847656 -11.203125 16.421875 -11.203125 L 12.90625 -11.203125 C 12.476562 -11.203125 12.265625 -11.414062 12.265625 -11.84375 L 12.265625 -12.140625 C 12.265625 -12.671875 12.132812 -13.054688 11.875 -13.296875 C 11.625 -13.546875 11.21875 -13.671875 10.65625 -13.671875 L 8.328125 -13.671875 C 7.765625 -13.671875 7.367188 -13.5625 7.140625 -13.34375 C 6.921875 -13.132812 6.8125 -12.785156 6.8125 -12.296875 L 6.8125 -11.265625 C 6.8125 -10.773438 6.921875 -10.421875 7.140625 -10.203125 C 7.367188 -9.992188 7.765625 -9.890625 8.328125 -9.890625 L 13.453125 -9.890625 C 14.984375 -9.890625 16.097656 -9.5625 16.796875 -8.90625 C 17.503906 -8.257812 17.859375 -7.234375 17.859375 -5.828125 L 17.859375 -4 C 17.859375 -2.570312 17.5 -1.519531 16.78125 -0.84375 C 16.070312 -0.175781 14.9375 0.15625 13.375 0.15625 Z M 6.71875 0.15625 "/></g></g></g><g fill="#ffffff" fill-opacity="1"><g transform="translate(156.31373, 30.352529)"><g><path d="M 2.984375 6.078125 C 2.554688 6.078125 2.34375 5.863281 2.34375 5.4375 L 2.34375 -16 C 2.34375 -16.425781 2.554688 -16.640625 2.984375 -16.640625 L 6.40625 -16.640625 C 6.832031 -16.640625 7.046875 -16.425781 7.046875 -16 L 7.046875 -14.65625 L 7.296875 -14.65625 C 7.535156 -15.320312 8.007812 -15.847656 8.71875 -16.234375 C 9.4375 -16.617188 10.316406 -16.8125 11.359375 -16.8125 L 13.28125 -16.8125 C 15.03125 -16.8125 16.3125 -16.410156 17.125 -15.609375 C 17.9375 -14.804688 18.34375 -13.53125 18.34375 -11.78125 L 18.34375 -5.0625 C 18.34375 -3.3125 17.9375 -2.03125 17.125 -1.21875 C 16.3125 -0.40625 15.03125 0 13.28125 0 L 7.046875 0 L 7.046875 5.4375 C 7.046875 5.863281 6.832031 6.078125 6.40625 6.078125 Z M 11.78125 -3.6875 C 12.488281 -3.6875 12.96875 -3.816406 13.21875 -4.078125 C 13.476562 -4.347656 13.609375 -4.832031 13.609375 -5.53125 L 13.609375 -11.296875 C 13.609375 -12.003906 13.476562 -12.484375 13.21875 -12.734375 C 12.96875 -12.992188 12.488281 -13.125 11.78125 -13.125 L 8.90625 -13.125 C 8.195312 -13.125 7.707031 -12.992188 7.4375 -12.734375 C 7.175781 -12.484375 7.046875 -12.003906 7.046875 -11.296875 L 7.046875 -3.6875 Z M 11.78125 -3.6875 "/></g></g></g><g fill="#ffffff" fill-opacity="1"><g transform="translate(176.734802, 30.352529)"><g><path d="M 12.90625 -16.8125 C 14.65625 -16.8125 15.925781 -16.410156 16.71875 -15.609375 C 17.519531 -14.804688 17.921875 -13.53125 17.921875 -11.78125 L 17.921875 -0.640625 C 17.921875 -0.210938 17.707031 0 17.28125 0 L 13.859375 0 C 13.429688 0 13.21875 -0.210938 13.21875 -0.640625 L 13.21875 -2.015625 L 12.96875 -2.015625 C 12.820312 -1.503906 12.414062 -1.015625 11.75 -0.546875 C 11.082031 -0.078125 10.132812 0.15625 8.90625 0.15625 L 6.078125 0.15625 C 4.671875 0.15625 3.625 -0.179688 2.9375 -0.859375 C 2.257812 -1.546875 1.921875 -2.59375 1.921875 -4 L 1.921875 -5.4375 C 1.921875 -6.875 2.257812 -7.925781 2.9375 -8.59375 C 3.625 -9.269531 4.671875 -9.609375 6.078125 -9.609375 L 13.21875 -9.609375 L 13.21875 -11.8125 C 13.21875 -12.519531 13.082031 -13.003906 12.8125 -13.265625 C 12.550781 -13.535156 12.066406 -13.671875 11.359375 -13.671875 L 8.578125 -13.671875 C 8.023438 -13.671875 7.628906 -13.554688 7.390625 -13.328125 C 7.160156 -13.109375 7.046875 -12.734375 7.046875 -12.203125 L 7.046875 -11.6875 C 7.046875 -11.257812 6.832031 -11.046875 6.40625 -11.046875 L 2.875 -11.046875 C 2.445312 -11.046875 2.234375 -11.257812 2.234375 -11.6875 L 2.234375 -12.328125 C 2.234375 -13.898438 2.613281 -15.039062 3.375 -15.75 C 4.132812 -16.457031 5.390625 -16.8125 7.140625 -16.8125 Z M 11.359375 -3.140625 C 12.066406 -3.140625 12.550781 -3.269531 12.8125 -3.53125 C 13.082031 -3.800781 13.21875 -4.289062 13.21875 -5 L 13.21875 -6.46875 L 8 -6.46875 C 7.488281 -6.46875 7.132812 -6.363281 6.9375 -6.15625 C 6.75 -5.957031 6.65625 -5.601562 6.65625 -5.09375 L 6.65625 -4.671875 C 6.65625 -4.097656 6.757812 -3.695312 6.96875 -3.46875 C 7.1875 -3.25 7.582031 -3.140625 8.15625 -3.140625 Z M 11.359375 -3.140625 "/></g></g></g><g fill="#ffffff" fill-opacity="1"><g transform="translate(196.803782, 30.352529)"><g><path d="M 7.140625 0.15625 C 5.390625 0.15625 4.109375 -0.242188 3.296875 -1.046875 C 2.484375 -1.859375 2.078125 -3.140625 2.078125 -4.890625 L 2.078125 -11.78125 C 2.078125 -13.53125 2.484375 -14.804688 3.296875 -15.609375 C 4.109375 -16.410156 5.390625 -16.8125 7.140625 -16.8125 L 12.96875 -16.8125 C 14.71875 -16.8125 16 -16.410156 16.8125 -15.609375 C 17.625 -14.804688 18.03125 -13.53125 18.03125 -11.78125 L 18.03125 -10.828125 C 18.03125 -10.398438 17.816406 -10.1875 17.390625 -10.1875 L 13.859375 -10.1875 C 13.429688 -10.1875 13.21875 -10.398438 13.21875 -10.828125 L 13.21875 -11.203125 C 13.21875 -11.910156 13.082031 -12.394531 12.8125 -12.65625 C 12.550781 -12.925781 12.066406 -13.0625 11.359375 -13.0625 L 8.640625 -13.0625 C 7.941406 -13.0625 7.460938 -12.925781 7.203125 -12.65625 C 6.941406 -12.394531 6.8125 -11.910156 6.8125 -11.203125 L 6.8125 -5.4375 C 6.8125 -4.738281 6.941406 -4.257812 7.203125 -4 C 7.460938 -3.75 7.941406 -3.625 8.640625 -3.625 L 11.359375 -3.625 C 12.066406 -3.625 12.550781 -3.75 12.8125 -4 C 13.082031 -4.257812 13.21875 -4.738281 13.21875 -5.4375 L 13.21875 -5.859375 C 13.21875 -6.285156 13.429688 -6.5 13.859375 -6.5 L 17.390625 -6.5 C 17.816406 -6.5 18.03125 -6.285156 18.03125 -5.859375 L 18.03125 -4.890625 C 18.03125 -3.140625 17.625 -1.859375 16.8125 -1.046875 C 16 -0.242188 14.71875 0.15625 12.96875 0.15625 Z M 7.140625 0.15625 "/></g></g></g><g fill="#ffffff" fill-opacity="1"><g transform="translate(216.744726, 30.352529)"><g><path d="M 6.8125 -7.140625 L 6.8125 -4.796875 C 6.8125 -4.097656 6.941406 -3.617188 7.203125 -3.359375 C 7.460938 -3.109375 7.941406 -2.984375 8.640625 -2.984375 L 11.75 -2.984375 C 12.257812 -2.984375 12.628906 -3.09375 12.859375 -3.3125 C 13.097656 -3.539062 13.21875 -3.890625 13.21875 -4.359375 L 13.21875 -4.96875 C 13.21875 -5.394531 13.429688 -5.609375 13.859375 -5.609375 L 17.390625 -5.609375 C 17.816406 -5.609375 18.03125 -5.394531 18.03125 -4.96875 L 18.03125 -4.328125 C 18.03125 -2.765625 17.648438 -1.625 16.890625 -0.90625 C 16.128906 -0.195312 14.875 0.15625 13.125 0.15625 L 7.140625 0.15625 C 5.390625 0.15625 4.109375 -0.242188 3.296875 -1.046875 C 2.484375 -1.859375 2.078125 -3.140625 2.078125 -4.890625 L 2.078125 -11.78125 C 2.078125 -13.53125 2.484375 -14.804688 3.296875 -15.609375 C 4.109375 -16.410156 5.390625 -16.8125 7.140625 -16.8125 L 13.0625 -16.8125 C 14.8125 -16.8125 16.085938 -16.410156 16.890625 -15.609375 C 17.691406 -14.804688 18.09375 -13.53125 18.09375 -11.78125 L 18.09375 -7.78125 C 18.09375 -7.351562 17.878906 -7.140625 17.453125 -7.140625 Z M 8.640625 -13.671875 C 7.941406 -13.671875 7.460938 -13.535156 7.203125 -13.265625 C 6.941406 -13.003906 6.8125 -12.519531 6.8125 -11.8125 L 6.8125 -10.28125 L 13.375 -10.28125 L 13.375 -11.8125 C 13.375 -12.519531 13.238281 -13.003906 12.96875 -13.265625 C 12.707031 -13.535156 12.226562 -13.671875 11.53125 -13.671875 Z M 8.640625 -13.671875 "/></g></g></g><g fill="#000000" fill-opacity="1"><g transform="translate(236.919634, 30.352529)"><g/></g></g><g fill="#ffffff" fill-opacity="1"><g transform="translate(243.491964, 30.352529)"><g><path d="M 3.78125 0 C 3.5 0 3.359375 -0.140625 3.359375 -0.421875 L 3.359375 -22 C 3.359375 -22.269531 3.5 -22.40625 3.78125 -22.40625 L 5.40625 -22.40625 C 5.707031 -22.40625 5.859375 -22.269531 5.859375 -22 L 5.859375 -2.375 L 17.421875 -2.375 C 17.710938 -2.375 17.859375 -2.234375 17.859375 -1.953125 L 17.859375 -0.421875 C 17.859375 -0.140625 17.710938 0 17.421875 0 Z M 3.78125 0 "/></g></g></g><g fill="#ffffff" fill-opacity="1"><g transform="translate(262.152597, 30.352529)"><g><path d="M 11.015625 -16.328125 C 12.640625 -16.328125 13.835938 -15.9375 14.609375 -15.15625 C 15.390625 -14.375 15.78125 -13.175781 15.78125 -11.5625 L 15.78125 -0.421875 C 15.78125 -0.140625 15.628906 0 15.328125 0 L 13.828125 0 C 13.554688 0 13.421875 -0.140625 13.421875 -0.421875 L 13.421875 -1.53125 L 13.25 -1.53125 C 13 -1.0625 12.570312 -0.660156 11.96875 -0.328125 C 11.375 -0.00390625 10.640625 0.15625 9.765625 0.15625 L 6.40625 0.15625 C 5.125 0.15625 4.148438 -0.171875 3.484375 -0.828125 C 2.828125 -1.492188 2.5 -2.476562 2.5 -3.78125 L 2.5 -5.09375 C 2.5 -6.375 2.828125 -7.34375 3.484375 -8 C 4.148438 -8.664062 5.125 -9 6.40625 -9 L 13.421875 -9 L 13.421875 -11.5625 C 13.421875 -12.539062 13.222656 -13.226562 12.828125 -13.625 C 12.429688 -14.019531 11.738281 -14.21875 10.75 -14.21875 L 7.5625 -14.21875 C 6.707031 -14.21875 6.09375 -14.03125 5.71875 -13.65625 C 5.34375 -13.28125 5.15625 -12.664062 5.15625 -11.8125 L 5.15625 -11.296875 C 5.15625 -11.023438 5.015625 -10.890625 4.734375 -10.890625 L 3.234375 -10.890625 C 2.953125 -10.890625 2.8125 -11.023438 2.8125 -11.296875 L 2.8125 -11.90625 C 2.8125 -13.425781 3.179688 -14.539062 3.921875 -15.25 C 4.660156 -15.96875 5.835938 -16.328125 7.453125 -16.328125 Z M 10.75 -1.953125 C 11.738281 -1.953125 12.429688 -2.15625 12.828125 -2.5625 C 13.222656 -2.96875 13.421875 -3.648438 13.421875 -4.609375 L 13.421875 -6.890625 L 6.8125 -6.890625 C 6.113281 -6.890625 5.609375 -6.734375 5.296875 -6.421875 C 4.984375 -6.109375 4.828125 -5.613281 4.828125 -4.9375 L 4.828125 -3.9375 C 4.828125 -3.226562 4.984375 -2.71875 5.296875 -2.40625 C 5.609375 -2.101562 6.113281 -1.953125 6.8125 -1.953125 Z M 10.75 -1.953125 "/></g></g></g><g fill="#ffffff" fill-opacity="1"><g transform="translate(280.55716, 30.352529)"><g><path d="M 3.234375 0 C 2.953125 0 2.8125 -0.140625 2.8125 -0.421875 L 2.8125 -22 C 2.8125 -22.269531 2.953125 -22.40625 3.234375 -22.40625 L 4.734375 -22.40625 C 5.015625 -22.40625 5.15625 -22.269531 5.15625 -22 L 5.15625 -14.65625 L 5.3125 -14.65625 C 5.550781 -15.101562 5.972656 -15.492188 6.578125 -15.828125 C 7.179688 -16.160156 7.921875 -16.328125 8.796875 -16.328125 L 11.171875 -16.328125 C 12.796875 -16.328125 13.992188 -15.9375 14.765625 -15.15625 C 15.546875 -14.375 15.9375 -13.175781 15.9375 -11.5625 L 15.9375 -4.765625 C 15.9375 -3.148438 15.546875 -1.953125 14.765625 -1.171875 C 13.992188 -0.390625 12.796875 0 11.171875 0 Z M 10.921875 -2.109375 C 11.898438 -2.109375 12.585938 -2.3125 12.984375 -2.71875 C 13.378906 -3.125 13.578125 -3.804688 13.578125 -4.765625 L 13.578125 -11.5625 C 13.578125 -12.539062 13.378906 -13.226562 12.984375 -13.625 C 12.585938 -14.019531 11.898438 -14.21875 10.921875 -14.21875 L 7.8125 -14.21875 C 6.851562 -14.21875 6.171875 -14.019531 5.765625 -13.625 C 5.359375 -13.226562 5.15625 -12.539062 5.15625 -11.5625 L 5.15625 -2.109375 Z M 10.921875 -2.109375 "/></g></g></g><g fill="#000000" fill-opacity="1"><g transform="translate(298.970848, 30.352529)"><g><path d="M 6.59375 0.15625 C 5.101562 0.15625 4 -0.179688 3.28125 -0.859375 C 2.5625 -1.546875 2.203125 -2.59375 2.203125 -4 L 2.203125 -4.9375 C 2.203125 -5.226562 2.34375 -5.375 2.625 -5.375 L 4.125 -5.375 C 4.425781 -5.375 4.578125 -5.226562 4.578125 -4.9375 L 4.578125 -4.296875 C 4.578125 -2.734375 5.347656 -1.953125 6.890625 -1.953125 L 11.015625 -1.953125 C 12.484375 -1.953125 13.21875 -2.613281 13.21875 -3.9375 L 13.21875 -5.21875 C 13.21875 -5.789062 13.03125 -6.238281 12.65625 -6.5625 C 12.289062 -6.882812 11.742188 -7.046875 11.015625 -7.046875 L 6.921875 -7.046875 C 5.441406 -7.046875 4.335938 -7.367188 3.609375 -8.015625 C 2.890625 -8.671875 2.53125 -9.660156 2.53125 -10.984375 L 2.53125 -12.421875 C 2.53125 -15.023438 3.992188 -16.328125 6.921875 -16.328125 L 10.375 -16.328125 C 11.863281 -16.328125 12.96875 -15.984375 13.6875 -15.296875 C 14.40625 -14.617188 14.765625 -13.578125 14.765625 -12.171875 L 14.765625 -11.5625 C 14.765625 -11.28125 14.625 -11.140625 14.34375 -11.140625 L 12.84375 -11.140625 C 12.5625 -11.140625 12.421875 -11.28125 12.421875 -11.5625 L 12.421875 -12.140625 C 12.421875 -13.523438 11.664062 -14.21875 10.15625 -14.21875 L 7.078125 -14.21875 C 5.617188 -14.21875 4.890625 -13.566406 4.890625 -12.265625 L 4.890625 -11.140625 C 4.890625 -9.816406 5.617188 -9.15625 7.078125 -9.15625 L 11.296875 -9.15625 C 12.773438 -9.15625 13.851562 -8.835938 14.53125 -8.203125 C 15.21875 -7.578125 15.5625 -6.632812 15.5625 -5.375 L 15.5625 -3.78125 C 15.5625 -1.15625 14.097656 0.15625 11.171875 0.15625 Z M 6.59375 0.15625 "/></g></g></g><g clip-path="url(#f1b06d3348)"><path fill="#ffffff" d="M 313.488281 15.222656 C 313.429688 14.878906 313.175781 14.605469 312.9375 14.351562 C 312.59375 13.992188 312.25 13.628906 311.84375 13.339844 C 311.441406 13.050781 310.96875 12.835938 310.472656 12.808594 C 309.761719 12.765625 309.070312 13.109375 308.359375 13.074219 C 307.761719 13.046875 307.210938 12.753906 306.660156 12.511719 C 305.8125 12.132812 304.722656 11.910156 304.082031 12.773438 C 303.800781 13.15625 303.714844 13.660156 303.855469 14.109375 C 303.90625 14.273438 303.988281 14.425781 304.050781 14.582031 C 304.109375 14.742188 304.132812 14.910156 304.15625 15.074219 C 304.222656 15.5 304.191406 15.941406 304.058594 16.351562 C 303.925781 16.773438 303.695312 17.171875 303.628906 17.613281 C 303.554688 18.070312 303.605469 18.558594 303.808594 18.972656 C 303.898438 19.152344 304.078125 19.324219 304.292969 19.304688 C 304.609375 19.277344 304.726562 18.890625 304.789062 18.636719 C 304.988281 17.855469 304.871094 17.050781 304.753906 16.269531 C 304.710938 15.976562 304.660156 15.683594 304.667969 15.390625 C 304.671875 15.132812 304.746094 14.335938 305.171875 14.476562 C 305.246094 14.503906 305.300781 14.574219 305.324219 14.648438 C 305.363281 14.769531 305.339844 14.902344 305.3125 15.03125 C 305.285156 15.15625 305.253906 15.289062 305.292969 15.410156 C 305.363281 15.648438 305.640625 15.667969 305.769531 15.46875 C 305.839844 15.359375 305.851562 15.214844 305.835938 15.085938 C 305.8125 14.894531 305.738281 14.703125 305.753906 14.507812 C 305.769531 14.316406 305.917969 14.109375 306.113281 14.125 C 306.355469 14.148438 306.429688 14.464844 306.425781 14.710938 C 306.421875 15.09375 306.371094 15.476562 306.304688 15.851562 C 306.246094 16.167969 306.101562 16.472656 306.089844 16.800781 C 306.085938 17.023438 306.238281 17.277344 306.46875 17.316406 C 306.828125 17.375 307.023438 16.996094 307.109375 16.710938 C 307.253906 16.253906 307.261719 15.769531 307.160156 15.304688 C 307.113281 15.089844 307.019531 14.875 307.058594 14.648438 C 307.089844 14.464844 307.292969 14.246094 307.492188 14.347656 C 307.648438 14.421875 307.671875 14.621094 307.707031 14.789062 C 307.738281 14.957031 307.847656 15.152344 308.015625 15.128906 C 308.285156 15.085938 308.265625 14.558594 308.535156 14.566406 C 308.675781 14.570312 308.753906 14.734375 308.769531 14.871094 C 308.78125 15.011719 308.773438 15.167969 308.863281 15.277344 C 309.054688 15.5 309.394531 15.324219 309.632812 15.410156 C 309.910156 15.515625 309.960938 15.863281 309.957031 16.121094 C 309.953125 16.609375 309.917969 17.09375 309.882812 17.578125 C 309.855469 17.925781 309.765625 18.289062 309.816406 18.648438 C 309.871094 19.015625 310.234375 19.492188 310.628906 19.164062 C 310.734375 19.078125 310.804688 18.949219 310.84375 18.816406 C 311.121094 17.882812 310.527344 17.015625 310.351562 16.125 C 310.316406 15.941406 310.292969 15.753906 310.339844 15.574219 C 310.386719 15.394531 310.523438 15.226562 310.707031 15.195312 C 310.84375 15.171875 310.984375 15.226562 311.089844 15.3125 C 311.207031 15.410156 311.292969 15.550781 311.308594 15.699219 C 311.324219 15.839844 311.28125 15.976562 311.238281 16.109375 C 311.195312 16.238281 311.152344 16.375 311.160156 16.515625 C 311.164062 16.652344 311.238281 16.796875 311.367188 16.847656 C 311.457031 16.878906 311.558594 16.863281 311.632812 16.808594 C 311.734375 16.726562 311.742188 16.585938 311.75 16.464844 C 311.757812 16.234375 311.722656 16.011719 311.703125 15.78125 C 311.6875 15.636719 311.683594 15.441406 311.859375 15.398438 C 312.035156 15.351562 312.246094 15.511719 312.371094 15.617188 C 312.546875 15.765625 312.71875 15.949219 312.949219 15.960938 C 313.296875 15.984375 313.542969 15.570312 313.488281 15.222656 Z M 313.488281 15.222656 " fill-opacity="1" fill-rule="nonzero"/></g></svg>