<svg xmlns="http://www.w3.org/2000/svg" width="933.333" height="933.333" preserveAspectRatio="xMidYMid meet" version="1.0" viewBox="0 0 700 700"><metadata>Created by potrace 1.14, written by Peter Selinger 2001-2017</metadata><g fill="#000" stroke="none"><path d="M4698 6012 c-62 -39 -125 -95 -255 -227 -76 -77 -148 -152 -160 -167 -37 -45 -197 -279 -228 -333 -16 -27 -32 -52 -36 -55 -23 -16 -195 -386 -203 -435 -3 -19 -58 -109 -91 -150 -117 -143 -223 -244 -380 -357 -75 -54 -264 -172 -272 -170 -2 1 -31 -12 -65 -27 -70 -31 -98 -43 -113 -47 -5 -1 -35 -11 -65 -22 -30 -10 -59 -20 -65 -22 -31 -8 -55 -21 -55 -29 0 -14 48 -38 90 -44 37 -6 81 -14 115 -21 35 -8 188 -20 243 -19 28 0 52 -3 52 -7 0 -16 -121 -101 -205 -144 -16 -9 -37 -20 -45 -25 -89 -55 -360 -147 -495 -167 -59 -9 -230 -10 -262 -1 -38 10 -26 -10 21 -36 59 -33 163 -71 261 -96 103 -26 130 -30 245 -38 52 -3 96 -7 98 -8 3 -3 -117 -80 -201 -129 -223 -130 -555 -254 -757 -282 -19 -2 -60 -9 -90 -14 -30 -5 -93 -12 -139 -15 -46 -3 -87 -8 -92 -10 -4 -3 -10 -1 -14 5 -4 6 -11 7 -17 3 -7 -3 -46 -7 -87 -9 -110 -3 -277 -14 -345 -21 -33 -3 -74 -7 -90 -8 -17 -2 -31 -3 -31 -4 0 -1 -22 -4 -50 -6 -79 -7 -129 -16 -145 -26 -8 -4 -10 -9 -5 -9 6 -1 24 -3 40 -5 17 -2 71 -6 120 -9 50 -4 108 -9 130 -11 22 -3 63 -7 90 -9 64 -6 114 -14 195 -32 36 -8 77 -16 92 -19 47 -7 168 -46 168 -53 0 -4 -17 -12 -38 -19 -20 -6 -48 -16 -62 -21 -14 -5 -28 -10 -32 -11 -4 -1 -28 -10 -53 -21 -25 -11 -49 -20 -53 -21 -59 -13 -444 -163 -579 -226 -39 -18 -76 -33 -82 -33 -6 0 -11 -4 -11 -8 0 -6 -46 -30 -70 -36 -3 -1 -11 -5 -19 -10 -8 -5 -44 -25 -80 -43 -202 -106 -343 -188 -335 -196 5 -5 81 23 149 55 12 5 27 10 35 12 8 2 22 6 30 9 8 3 47 15 85 27 98 31 100 31 102 31 2 0 22 7 45 15 24 9 52 17 63 19 11 1 47 9 80 18 83 22 225 45 320 53 175 14 420 7 505 -16 19 -5 49 -12 67 -15 79 -13 286 -104 393 -173 71 -45 82 -60 61 -82 -15 -15 -100 -109 -202 -224 -124 -138 -244 -320 -363 -548 -40 -79 -100 -195 -133 -258 -57 -110 -108 -204 -159 -297 -40 -72 -12 -48 45 40 30 45 57 84 60 87 3 3 11 12 16 21 19 32 94 136 114 160 110 131 162 191 188 215 57 55 99 91 129 110 16 10 31 21 34 24 11 12 79 60 85 60 3 0 18 8 33 19 37 25 86 55 92 57 3 0 48 21 100 46 77 37 299 119 320 118 3 0 29 7 59 16 30 9 62 17 70 19 9 2 48 10 86 19 39 9 82 18 98 21 15 3 37 7 50 9 28 6 170 27 217 33 42 5 81 8 222 18 l106 8 27 -39 c15 -22 64 -96 110 -166 46 -70 101 -146 122 -169 108 -118 311 -316 408 -398 86 -72 461 -341 476 -341 5 0 3 12 -5 27 -29 57 -54 161 -51 209 1 27 17 90 34 139 18 50 34 99 36 110 6 25 100 276 182 485 99 251 240 577 308 713 14 26 19 45 12 40 -6 -4 -39 -24 -71 -45 -33 -21 -65 -38 -72 -38 -7 0 -14 -5 -16 -11 -2 -6 -12 -10 -22 -8 -15 3 -6 22 55 113 41 60 79 116 84 125 29 46 50 77 55 81 3 3 23 31 44 63 43 64 35 62 146 42 133 -24 169 -40 311 -136 48 -33 103 -64 121 -70 29 -8 117 -2 204 15 10 2 47 7 81 11 112 12 115 14 139 84 25 71 30 77 90 86 50 7 65 22 98 97 22 49 75 118 91 118 2 0 15 8 27 18 72 58 109 121 115 202 6 63 4 66 -93 137 -51 38 -159 133 -258 227 -28 27 -111 105 -184 175 -74 69 -140 138 -147 152 -15 28 -13 59 7 106 6 16 12 30 13 33 7 28 18 50 23 50 4 0 17 -7 29 -15 37 -26 51 1 52 96 1 90 -18 157 -68 249 -17 30 -38 70 -48 88 -9 17 -20 32 -25 32 -4 0 -8 5 -8 11 0 7 -15 33 -34 59 -19 27 -36 54 -37 62 -2 7 5 47 14 88 10 41 19 84 22 95 2 11 11 53 19 92 9 40 18 87 21 105 4 18 12 60 20 93 47 199 55 233 60 265 3 19 11 55 16 80 6 25 13 56 15 70 3 14 11 61 19 104 16 86 11 107 -28 102 -36 -6 -67 -18 -67 -27 0 -5 -5 -9 -11 -9 -15 0 -187 -120 -264 -183 -66 -55 -232 -221 -339 -339 -38 -43 -74 -79 -80 -81 -18 -7 -179 48 -187 63 -10 21 -72 319 -93 450 -2 14 -7 36 -10 50 -7 31 -16 77 -21 110 -11 71 -55 262 -65 280 -13 25 -54 25 -92 2z" transform="translate(0.000000,700.000000) scale(0.100000,-0.100000)"/></g></svg>